<?xml version="1.0" encoding="UTF-8" standalone="no"?>
<svg
   xmlns:dc="http://purl.org/dc/elements/1.1/"
   xmlns:cc="http://creativecommons.org/ns#"
   xmlns:rdf="http://www.w3.org/1999/02/22-rdf-syntax-ns#"
   xmlns:svg="http://www.w3.org/2000/svg"
   xmlns="http://www.w3.org/2000/svg"
   xmlns:sodipodi="http://sodipodi.sourceforge.net/DTD/sodipodi-0.dtd"
   xmlns:inkscape="http://www.inkscape.org/namespaces/inkscape"
   version="1.0"
   width="141pt"
   height="55pt"
   viewBox="0 0 141 55"
   preserveAspectRatio="xMidYMid meet"
   id="svg8"
   sodipodi:docname="assoBA79-2.svg"
   inkscape:version="0.92.3 (2405546, 2018-03-11)">
  <defs
     id="defs12" />
  <sodipodi:namedview
     pagecolor="#ffffff"
     bordercolor="#666666"
     borderopacity="1"
     objecttolerance="10"
     gridtolerance="10"
     guidetolerance="10"
     inkscape:pageopacity="0"
     inkscape:pageshadow="2"
     inkscape:window-width="1600"
     inkscape:window-height="851"
     id="namedview10"
     showgrid="false"
     inkscape:zoom="3.8128474"
     inkscape:cx="95.673849"
     inkscape:cy="-4.0358618"
     inkscape:window-x="0"
     inkscape:window-y="25"
     inkscape:window-maximized="1"
     inkscape:current-layer="g858" />
  <metadata
     id="metadata2">
Created by potrace 1.16, written by Peter Selinger 2001-2019
<rdf:RDF>
  <cc:Work
     rdf:about="">
    <dc:format>image/svg+xml</dc:format>
    <dc:type
       rdf:resource="http://purl.org/dc/dcmitype/StillImage" />
    <dc:title />
  </cc:Work>
</rdf:RDF>
</metadata>
  <g
     id="g850"
     transform="matrix(1.4410223,0,0,1.4410223,-42.754419,-61.41981)">
    <g
       id="g858"
       transform="matrix(0.87871004,0,0,0.87871004,4.5733105,14.262783)">
      <text
         xml:space="preserve"
         style="font-style:normal;font-variant:normal;font-weight:normal;font-stretch:normal;font-size:41.34143829px;line-height:1.25;font-family:Waree;-inkscape-font-specification:Waree;text-align:center;letter-spacing:0px;word-spacing:0px;text-anchor:middle;fill:#000000;fill-opacity:1;stroke:none;stroke-width:1.29191995"
         x="74.860672"
         y="63.363125"
         id="text824"
         transform="scale(0.94259866,1.0608969)"><tspan
           sodipodi:role="line"
           id="tspan822"
           x="74.860672"
           y="63.363125"
           style="font-style:normal;font-variant:normal;font-weight:normal;font-stretch:normal;font-size:41.34143829px;font-family:Dyuthi;-inkscape-font-specification:Dyuthi;fill:#ff6f00;fill-opacity:1;stroke-width:1.29191995">B.A.</tspan></text>
      <text
         xml:space="preserve"
         style="font-style:normal;font-variant:normal;font-weight:normal;font-stretch:normal;font-size:11.36302853px;line-height:1.25;font-family:Waree;-inkscape-font-specification:Waree;text-align:center;letter-spacing:0px;word-spacing:0px;text-anchor:middle;fill:#a1c1da;fill-opacity:1;stroke:none;stroke-width:0.35509464"
         x="118.19079"
         y="49.470818"
         id="text824-5"
         transform="scale(0.98156119,1.0187852)"><tspan
           sodipodi:role="line"
           id="tspan822-5"
           x="118.19079"
           y="49.470818"
           style="font-style:normal;font-variant:normal;font-weight:normal;font-stretch:normal;font-size:11.36302853px;font-family:Dyuthi;-inkscape-font-specification:Dyuthi;fill:#a1c1da;fill-opacity:1;stroke-width:0.35509464">79</tspan></text>
      <g
         transform="matrix(0.59230441,0,0,0.59230441,70.611446,86.070315)"
         id="g18">
        <g
           id="g16">
          <path
             inkscape:connector-curvature="0"
             d="m 46.592496,-72.143292 c -0.07045,-0.0035 -0.132226,0.0035 -0.195087,0.01051 -0.03577,-0.0024 -0.06611,-0.01051 -0.101879,-0.01051 -1.533603,0 -1.533603,1.34474 0,1.34474 0.06395,0 0.11922,-0.01051 0.177746,-0.01984 0.04118,0.0058 0.07695,0.01751 0.120304,0.01984 5.787591,0.296498 11.590355,1.524508 17.117829,3.62333 1.449066,0.55097 2.067927,-1.923726 0.631867,-2.46886 -5.726897,-2.173531 -11.755096,-2.193375 -17.75078,-2.49921 z"
             id="path2"
             style="fill:#4d4d4d;fill-opacity:0.50588235;stroke-width:1.12478983" />
          <path
             inkscape:connector-curvature="0"
             d="m 64.026801,-63.928933 c 1.534687,0.01985 1.532519,-2.542401 0,-2.559911 -7.63225,-0.09105 -15.083503,1.482484 -22.506575,3.246289 -0.09538,0.02334 -0.182082,0.05486 -0.261201,0.09338 -1.246391,0.292995 -1.153183,1.313223 0.279625,1.313223 0.217848,0 0.402097,-0.05603 0.559251,-0.14708 0.01951,-0.0035 0.03577,-0.0024 0.05419,-0.007 7.219315,-1.713621 14.451636,-2.02646 21.874709,-1.938912 z"
             id="path4"
             style="fill:#4d4d4d;fill-opacity:0.50588235;stroke-width:1.12478983" />
          <path
             inkscape:connector-curvature="0"
             d="m 63.909748,-63.349947 c -4.185707,0.939684 -8.113465,2.660299 -11.972942,4.609706 -1.387288,0.701554 -0.179915,1.691433 1.199786,0.994548 3.679564,-1.858357 7.41657,-2.240067 11.405023,-3.135394 1.500004,-0.335018 0.864887,-2.803878 -0.631867,-2.46886 z"
             id="path6"
             style="fill:#4d4d4d;fill-opacity:0.50588235;stroke-width:1.12478983" />
          <path
             inkscape:connector-curvature="0"
             d="m 109.02878,-72.395058 c -0.0639,-0.007 -0.12681,-0.01401 -0.19617,-0.01051 -5.99569,0.305836 -12.02497,0.326847 -17.751867,2.500378 -1.434976,0.543966 -0.817199,3.018663 0.632951,2.468861 5.528558,-2.098824 11.331326,-3.326834 17.118916,-3.62333 0.0434,-0.0024 0.0791,-0.01401 0.11922,-0.01985 0.0585,0.0093 0.1138,0.01985 0.17666,0.01985 1.5336,0 1.5336,-1.344741 0,-1.344741 -0.0358,-0.0012 -0.065,0.0058 -0.0997,0.0093 z"
             id="path8"
             style="fill:#4d4d4d;fill-opacity:0.50592885;stroke-width:1.12478983" />
          <path
             inkscape:connector-curvature="0"
             d="m 114.16391,-63.411441 c -0.0791,-0.03852 -0.16366,-0.0712 -0.26012,-0.09338 -7.42307,-1.764972 -14.874322,-3.337339 -22.507655,-3.246289 -1.531436,0.01868 -1.533603,2.579756 0,2.559911 7.42524,-0.08755 14.656475,0.224124 21.874705,1.940069 0.0206,0.0046 0.0358,0.0035 0.0542,0.007 0.15716,0.08988 0.34032,0.147082 0.55925,0.147082 1.4339,-0.0012 1.5271,-1.023731 0.27963,-1.314391 z"
             id="path10"
             style="fill:#4d4d4d;fill-opacity:0.50592885;stroke-width:1.12478983" />
          <path
             inkscape:connector-curvature="0"
             d="m 103.4883,-59.000177 c -3.85948,-1.950575 -7.786155,-3.671189 -11.971862,-4.609706 -1.496753,-0.335019 -2.134038,2.131507 -0.63295,2.470028 3.989536,0.896493 7.726542,1.277036 11.405022,3.135393 1.3797,0.695717 2.58816,-0.295329 1.19979,-0.995715 z"
             id="path12"
             style="fill:#4d4d4d;fill-opacity:0.50592885;stroke-width:1.12478983" />
        </g>
      </g>
    </g>
  </g>
</svg>
