<?xml version="1.0" encoding="UTF-8" standalone="no"?>
<svg
   xmlns:dc="http://purl.org/dc/elements/1.1/"
   xmlns:cc="http://creativecommons.org/ns#"
   xmlns:rdf="http://www.w3.org/1999/02/22-rdf-syntax-ns#"
   xmlns:svg="http://www.w3.org/2000/svg"
   xmlns="http://www.w3.org/2000/svg"
   xmlns:sodipodi="http://sodipodi.sourceforge.net/DTD/sodipodi-0.dtd"
   xmlns:inkscape="http://www.inkscape.org/namespaces/inkscape"
   version="1.0"
   width="141pt"
   height="55pt"
   viewBox="0 0 141 55"
   preserveAspectRatio="xMidYMid meet"
   id="svg8"
   sodipodi:docname="assoBA79-3.svg"
   inkscape:version="0.92.3 (2405546, 2018-03-11)"
   inkscape:export-filename="/home/florent/VisualStudioCode/association-ba/site/static/images/favicon-1.svg.png"
   inkscape:export-xdpi="174"
   inkscape:export-ydpi="174">
  <defs
     id="defs12" />
  <sodipodi:namedview
     pagecolor="#ffffff"
     bordercolor="#666666"
     borderopacity="1"
     objecttolerance="10"
     gridtolerance="10"
     guidetolerance="10"
     inkscape:pageopacity="0"
     inkscape:pageshadow="2"
     inkscape:window-width="1600"
     inkscape:window-height="851"
     id="namedview10"
     showgrid="false"
     inkscape:zoom="1.4001982"
     inkscape:cx="-82.279905"
     inkscape:cy="116.07978"
     inkscape:window-x="0"
     inkscape:window-y="25"
     inkscape:window-maximized="1"
     inkscape:current-layer="svg8" />
  <metadata
     id="metadata2">
Created by potrace 1.16, written by Peter Selinger 2001-2019
<rdf:RDF>
  <cc:Work
     rdf:about="">
    <dc:format>image/svg+xml</dc:format>
    <dc:type
       rdf:resource="http://purl.org/dc/dcmitype/StillImage" />
    <dc:title></dc:title>
  </cc:Work>
</rdf:RDF>
</metadata>
  <g
     transform="matrix(0.05198061,0,0,-0.04517461,4.3885472,56.905962)"
     id="g6"
     style="fill:#000000;fill-opacity:0.41897236;stroke:none">
    <path
       d="m 1242,1154 c -93,-25 -164,-66 -238,-139 l -72,-70 -51,23 c -68,31 -143,32 -196,5 C 632,945 566,873 550,825 l -13,-38 -13,33 C 503,870 423,958 379,980 296,1023 182,993 103,907 48,847 33,797 49,727 75,611 205,550 281,618 c 27,24 31,34 30,73 -1,24 -2,61 -2,81 l -1,37 -34,-17 c -39,-18 -43,-28 -14,-37 52,-16 45,-112 -9,-135 -83,-34 -172,38 -187,152 -5,39 -2,48 31,90 43,55 114,105 161,114 79,15 185,-58 239,-166 19,-39 39,-70 44,-70 5,0 12,12 15,26 15,58 96,163 146,189 96,48 210,2 233,-96 C 943,820 924,728 895,668 865,606 814,544 647,367 507,219 492,200 513,200 c 22,0 183,156 271,263 43,53 101,135 129,184 59,102 72,178 43,247 -19,46 -17,50 68,111 79,56 171,102 271,136 74,25 77,27 40,28 -22,0 -64,-7 -93,-15 z"
       id="path4"
       style="fill:#000000;fill-opacity:0.41897236"
       inkscape:connector-curvature="0" />
  </g>
  <text
     xml:space="preserve"
     style="font-style:normal;font-variant:normal;font-weight:normal;font-stretch:normal;font-size:56.95459366px;line-height:1.25;font-family:Waree;-inkscape-font-specification:Waree;text-align:center;letter-spacing:0px;word-spacing:0px;text-anchor:middle;fill:#000000;fill-opacity:1;stroke:none;stroke-width:1.77983105"
     x="47.950668"
     y="46.283409"
     id="text824"
     transform="scale(0.98637333,1.0138149)"><tspan
       sodipodi:role="line"
       id="tspan822"
       x="47.950668"
       y="46.283409"
       style="font-style:normal;font-variant:normal;font-weight:normal;font-stretch:normal;font-size:56.95459366px;font-family:Dyuthi;-inkscape-font-specification:Dyuthi;fill:#ff6f00;fill-opacity:1;stroke-width:1.77983105">B.A.</tspan></text>
  <text
     xml:space="preserve"
     style="font-style:normal;font-variant:normal;font-weight:normal;font-stretch:normal;font-size:32.70115662px;line-height:1.25;font-family:Waree;-inkscape-font-specification:Waree;text-align:center;letter-spacing:0px;word-spacing:0px;text-anchor:middle;fill:#0094ff;fill-opacity:1;stroke:none;stroke-width:1.02191114"
     x="121.73816"
     y="31.051445"
     id="text824-5"
     transform="scale(0.89916642,1.1121412)"><tspan
       sodipodi:role="line"
       id="tspan822-5"
       x="121.73816"
       y="31.051445"
       style="font-style:normal;font-variant:normal;font-weight:normal;font-stretch:normal;font-size:32.70115662px;font-family:Dyuthi;-inkscape-font-specification:Dyuthi;fill:#0094ff;fill-opacity:1;stroke-width:1.02191114">79</tspan></text>
  <flowRoot
     xml:space="preserve"
     id="flowRoot817"
     style="fill:black;fill-opacity:1;stroke:none;font-family:Waree;font-style:normal;font-weight:normal;font-size:13.33333333px;line-height:1.25;letter-spacing:0px;word-spacing:0px;text-anchor:middle;text-align:center;-inkscape-font-specification:Waree;font-stretch:normal;font-variant:normal"><flowRegion
       id="flowRegion819"><rect
         id="rect821"
         width="164.97664"
         height="92.844002"
         x="-32.138306"
         y="-71.646141" /></flowRegion><flowPara
       id="flowPara823"></flowPara></flowRoot></svg>
