<?xml version="1.0" encoding="UTF-8" standalone="no"?>
<!-- Created with Inkscape (http://www.inkscape.org/) -->

<svg
   xmlns:dc="http://purl.org/dc/elements/1.1/"
   xmlns:cc="http://creativecommons.org/ns#"
   xmlns:rdf="http://www.w3.org/1999/02/22-rdf-syntax-ns#"
   xmlns:svg="http://www.w3.org/2000/svg"
   xmlns="http://www.w3.org/2000/svg"
   xmlns:sodipodi="http://sodipodi.sourceforge.net/DTD/sodipodi-0.dtd"
   xmlns:inkscape="http://www.inkscape.org/namespaces/inkscape"
   width="210mm"
   height="190mm"
   viewBox="0 0 210 190"
   version="1.1"
   id="svg1057"
   inkscape:version="0.92.3 (2405546, 2018-03-11)"
   sodipodi:docname="logo-square.svg"
   inkscape:export-filename="/home/florent/VisualStudioCode/association-ba/site/static/images/ressources-image/logo-square.svg.png"
   inkscape:export-xdpi="61.93"
   inkscape:export-ydpi="61.93">
  <defs
     id="defs1051" />
  <sodipodi:namedview
     id="base"
     pagecolor="#ffffff"
     bordercolor="#666666"
     borderopacity="1.0"
     inkscape:pageopacity="0.0"
     inkscape:pageshadow="2"
     inkscape:zoom="1.1802161"
     inkscape:cx="415.07084"
     inkscape:cy="439.73016"
     inkscape:document-units="mm"
     inkscape:current-layer="g1730"
     showgrid="false"
     inkscape:window-width="1600"
     inkscape:window-height="851"
     inkscape:window-x="0"
     inkscape:window-y="25"
     inkscape:window-maximized="1" />
  <metadata
     id="metadata1054">
    <rdf:RDF>
      <cc:Work
         rdf:about="">
        <dc:format>image/svg+xml</dc:format>
        <dc:type
           rdf:resource="http://purl.org/dc/dcmitype/StillImage" />
        <dc:title />
      </cc:Work>
    </rdf:RDF>
  </metadata>
  <g
     inkscape:label="Calque 1"
     inkscape:groupmode="layer"
     id="layer1"
     transform="translate(0,-107)">
    <g
       id="g1730"
       transform="matrix(0.01522014,0,0,-0.01522014,2.3040535,289.28102)"
       style="fill:#000000;stroke:none">
      <path
         id="path1672"
         d="m 13440,11713.12 c -13,-8 -135,-64 -195,-90 -76,-33 -120,-53 -195,-88 -47,-21 -96,-43 -110,-47 -62,-19 -509,-260 -530,-285 -3,-3 -23,-17 -45,-30 -22,-13 -116,-81 -210,-150 -93,-69 -225,-161 -293,-205 -159,-103 -321,-224 -397,-294 -120,-112 -379,-378 -453,-466 -42,-49 -81,-94.999 -87,-100.999 -5,-6 -17,-22 -25,-33.9995 -27,-39.9995 -144,-194.9975 -158,-208.997 -22,-23 -117,-151.998 -137,-187.9975 -22,-37.9995 -11,-57.999 36,-67.999 16,-4 31,-11 34,-15.9995 4,-5 12,-9 19,-9 7,0 84,71.999 172,160.9975 210,211.997 455,416.994 679,568.994 37,25 93,64 126,88 32,23 63,42 67,42 5,0 18,8 30,18 11,9 30,24 42,32 12,8 56,40 99,70 65,48 344,223 431,271 16,9 41,24 57,35 32,21 46,29 123,69 47,25 148,83 200,115 97,60 394,212 520,266 52,23 132,59 177,80 l 83,39 v 218 217 l -22,-1 c -13,0 -30,-4 -38,-9 z"
         inkscape:connector-curvature="0" />
      <path
         id="path1674"
         d="m 3460,11225.12 c -14,-9 -46,-39 -70,-67 -25,-27 -47,-52 -50,-55 -3,-3 -20,-26 -38,-52 -27,-40 -47,-78 -112,-223 -50,-109 -82,-310 -78,-475 3,-104 3,-105 28,-108 14,-1 39,6 55,16 24,15 33,32 48,84 9,37 17,78 17,92 0,13 4,27 9,30 5,3 12,22 16,42 3,20 10,44 15,53 5,9 32,66 61,126 48,103 112,234 134,276 24,46 48,27 221,-173 123,-142 163,-196 191,-256 43,-92 73,-186 73,-227 0,-64 56,-98 93,-57 27,30 20,116 -25,322 -21,99 -86,249 -141,330 -49,71 -165,181 -247,234 -41,27 -94,62 -117,77 -47,33 -49,33 -83,11 z"
         inkscape:connector-curvature="0" />
      <path
         id="path1676"
         d="m 3370,10116.12 c -219,-4 -631,-33 -680,-48 -80,-25 -144,-43 -180,-50 -19,-4 -39,-11 -45,-14 -5,-4 -32,-15.9995 -60,-25.9995 -44,-15.9995 -139,-60.999 -370,-176.9975 -117,-58.999 -252,-154.9975 -408,-289.9955 -18,-15 -35,-28 -39,-28 -4,0 -13,-5.9995 -20,-12.9995 -7,-7 -51,-41.9995 -98,-77.999 -47,-36.9995 -108,-90.9985 -136,-119.9985 -28,-29.9995 -78,-78.9985 -110,-108.998 -48,-44.9995 -151,-159.998 -273,-304.996 -28,-32.9995 -193,-253.999 -242,-324.999 -48,-68 -119,-206 -119,-232 0,-7 -4,-18 -9,-23 -30,-33 -92,-272 -121,-465 -25,-163 16,-672 74,-930 28,-123 36,-148 77,-231 22,-46 61,-127 87,-179 39,-79 119,-198 221,-330 52,-67 229,-235 301,-285 30,-21 92,-66 136,-99 197,-147 375,-236 471,-236 19,0 42,-4 51,-9 22,-12 166,-36 307,-53 160,-19 396,-16 465,6 30,10 76,21 102,25 25,4 52,12 60,17 7,6 31,16 54,22 23,7 61,27 85,45 24,19 67,44 94,56 31,14 61,38 80,63 17,22 44,50 62,62 29,20 73,75 145,181 15,22 57,67 93,99 53,49 67,69 80,111 10,35 12,61 6,82 -6,20 -4,48 5,84 8,29 14,70 14,90 0,20 7,53 15,72 17,41 20,286 5,367 -22,119 -54,218 -86,266 -19,28 -34,58 -34,67 0,9 -4,18 -9,21 -26,16 -20,202 13,406 18,108 59,242 88,282 23,33 12,62 -26,72 -31,8 -33,7 -194,-71 -73,-35 -152,-73 -175,-83 -23,-11 -67,-34 -97,-51 -93,-54 -104,-59 -142,-65 -44,-8 -137,-82 -179,-143 -33,-50 -34,-54 -16,-70 18,-14 109,-65 167,-92 206,-98 290,-142 319,-166 43,-35 81,-95 81,-126 0,-13 14,-51 31,-83 25,-49 31,-74 36,-149 4,-88 -6,-227 -27,-335 -35,-191 -61,-303 -80,-345 -5,-11 -19,-44 -30,-73 -48,-125 -91,-172 -207,-222 -149,-64 -165,-71 -205,-96 -38,-25 -87,-40 -173,-54 -72,-12 -403,-11 -450,1 -22,6 -60,15 -85,20 -116,26 -176,42 -185,49 -6,5 -35,18 -65,30 -74,29 -350,166 -360,179 -3,3 -24,19 -47,35 -113,76 -222,213 -332,416 -14,26 -37,67 -50,91 -13,24 -29,51 -35,59 -7,8 -23,40 -36,70 -13,30 -33,69 -45,85 -12,17 -31,55 -44,85 -12,30 -26,64 -31,75 -11,26 -29,97 -40,158 -5,26 -13,62 -19,80 -6,17 -18,68 -27,112 -8,44 -22,101 -30,126 -16,53 -37,251 -38,359 -2,119 22,278 54,369 30,85 42,101 205,283 33,36 65,72 70,80 6,7 35,45 65,83 30,39 75,93 101,120 25,28 93,106 150,174.999 57,68.999 118,138.998 137,154.9975 19,17 44,38.9995 57,49.9995 12,11 32,26.9995 45,34.9995 13,8 37,25.9995 54,39.9995 17,13.9995 56,42.9995 86,62.999 31,20.9995 76,55.999 101,79.999 123,113.998 173,148.9975 322,224.9965 64,32.9995 154,84.999 200,115.9985 133,88.9985 224,124.998 422,166.9975 272,57.999 307,62.999 445,62.999 152,0 268,-17.9995 380,-57.999 67,-23.9995 93,-33.9995 165,-65.999 11,-5 61,-25.9995 110,-45.9995 50,-20.9995 106,-47.999 126,-59.999 19,-12 80,-44.9995 135,-73.999 54,-27.9995 116,-64.999 136,-80.999 20,-15.9995 41,-28.9995 47,-28.9995 5,0 11,-4 13,-9 3,-8.9995 205,-160.9975 325,-242.9965 71,-49.999 173,-146.9975 428,-408.994 173,-177 220,-232 256,-297 14,-26 45,-81 69,-122 24,-41 70,-129 103,-195 32,-66 63,-128 68,-137 5,-10 9,-23 9,-28 0,-12 107,-243 137,-295 16,-28 175,-340 229,-447 13,-27 24,-52 24,-57 0,-19 87,-101 108,-101 49,0 107,110 127,240 4,25 11,50 15,55 4,6 10,24 14,40 4,17 13,44 21,60 8,17 20,46 27,65 15,41 136,280 166,330 12,19 25,42 29,50 4,8 26,47 50,86 24,39 43,77 43,83 0,6 4,11 8,11 4,0 20,26 36,58 36,74 44,88 87,147 38,53 169,269 169,279 0,15 64,93 91,109 16,11 29,25 29,32 0,48 52,116.999 199,267.997 212,217.9965 254,255.996 361,326.995 67,44.9995 155,114.9985 203,161.9975 32,31 75,60.9995 103,71.999 77,30 137,55.9995 164,69.999 122,66.999 196,96.999 285,114.9985 28,6 70,16 95,21.9995 25,6 99,15 165,20 66,5 138,12.9995 160,17.9995 69,17 256,23 325,12 186,-30.9995 302,-60.999 407,-106.9985 17,-8 35,-14 40,-14 24,0 382,-195.997 403,-219.9965 3,-4 26,-21 52,-37.9995 53,-35.9995 189,-168.9975 215,-209.997 10,-15 62,-87.999 117,-161.9975 104,-140.998 132,-190.9975 189,-329.996 71,-176 91,-322 84,-625 -7,-274 -22,-384 -54,-396 -20,-7 -21,-12 -12,-38 19,-54 -8,-364 -42,-488 -9,-35 -16,-43 -35,-43 -24,0 -33,-23 -14,-35 12,-7 13,-57 2,-70 -5,-6 -25,-62 -46,-125 -33,-103 -50,-151 -77,-215 -4,-11 -24,-60 -44,-110 -21,-49 -41,-99 -46,-110 -4,-11 -20,-49 -35,-85 -36,-87 -51,-119 -73,-155 -11,-16 -35,-61 -55,-99 -20,-38 -57,-99 -81,-136 -25,-37 -45,-73 -45,-79 0,-6 -4,-11 -8,-11 -5,0 -14,-12 -21,-27 -7,-16 -42,-73 -78,-128 -37,-55 -82,-125 -102,-155 -20,-30 -61,-89 -91,-131 -30,-42 -62,-86 -70,-98 -30,-45 -56,-79 -102,-132 -26,-30 -66,-77 -90,-106 -148,-176 -209,-247 -277,-318 -42,-44 -94,-102 -116,-130 -86,-110 -214,-244 -531,-560 -182,-181 -355,-357 -385,-390 -147,-163 -264,-302 -348,-415 -54,-72 -138,-173 -201,-240 -8,-9 -26,-30 -39,-46 -140,-168 -432,-461 -631,-634 -148,-128 -156,-137 -279,-290 -46,-58 -125,-146 -175,-196 -50,-49 -113,-117 -139,-150 -27,-32 -70,-81 -96,-109 -89,-95 -211,-263 -333,-456 -20,-31 -59,-75 -87,-99 -57,-48 -62,-66 -27,-99 39,-37.00003 86,-38.00003 154,-4 66,33 152,89 196,128 16,14 32,25 36,25 4,0 41,30 81,66 41,37 97,84 124,104 28,21 64,50 80,66 17,15 73,64 125,107 52,44 123,105 156,136 95,87 230,209 330,299 131,116 456,440 555,552 83,94 134,147 240,246 30,28 117,118 194,200 77,82 162,171 189,199 27,27 72,77 100,110 28,33 64,73 79,90 15,16 75,91 132,165 57,74 114,146 127,160 13,14 48,55 78,90 30,36 57,67 61,70 4,3 24,30 45,61 22,31 58,81 82,110 49,63 44,56 107,139 27,36 72,91 101,122 28,31 66,81 82,110 38,66 68,98 90,98 9,0 28,14 42,32 36,46 86,106 155,186 33,38 77,96 97,128 20,33 72,97 115,144 44,47 100,117 126,156 26,39 54,77 62,84 26,22 160,260 178,316 16,50 57,136 85,178 18,26 32,49 32,51 0,2 20,38 45,78 25,41 45,77 45,80 0,3 32,59 71,124 62,101 99,168 189,339 9,16 25,43 36,60 12,16 45,74 74,129 30,55 78,141 108,190 117,193 180,347 226,555 37,166 45,213 61,325 9,66 21,139 26,162 13,58 11,263 -2,320 -6,27 -18,62 -26,79 -8,18 -18,87 -24,165 -20,294 -43,417 -101,548.9985 -10,24.9995 -24,55.999 -30,69.999 -30,72.999 -134,265.996 -179,329.995 -61,88.999 -194,210.997 -294,269.996 -49,29 -97,58.9995 -105,65.9995 -37,30.9995 -221,123.998 -355,178.997 -22,9 -49,20 -60,25 -11,5 -49,18.9995 -85,29.9995 -36,12 -74,24.9995 -85,29.9995 -36,15 -119,37.9995 -160,44.9995 -22,4 -51,10.9995 -65,15.9995 -14,5 -48,14 -75,19 -28,5 -81,15.9995 -120,24.9995 -134,29 -171,34 -310,42 -223,12 -381,9 -485,-9 -114,-20 -183,-35 -224,-48 -17,-4.9995 -83,-25.9995 -146,-45.999 -63,-21 -119,-40.9995 -125,-45.9995 -5,-4 -15,-8 -22,-8 -18,0 -115,-42.999 -238,-104.9985 -203,-102.9985 -451,-285.9955 -699,-514.9925 -89,-81.999 -114,-107.9985 -191,-194.997 -38,-43.9995 -80,-90.999 -93,-104.9985 -42,-44.9995 -192,-239.9975 -227,-293.9975 -74,-116 -225,-411 -225,-440 0,-8 -4,-17 -9,-21 -5,-3 -13,-20 -17,-37 -3,-18 -10,-39 -15,-48 -9,-16 -34,-85 -49,-135 -5,-16 -17,-55 -26,-85 -9,-30 -21,-77 -26,-105 -13,-63 -47,-141 -57,-129 -4,5 -18,47 -30,94 -12,47 -26,94 -31,105 -4,11 -16,45 -25,75 -33,110 -55,158 -189,415 -40,76 -74,134 -86,145 -3,3 -13,20 -24,38 -29,53 -113,161 -181,233 -34,36.9995 -77,88.999 -95,114.9985 -28,40.9995 -168,204.997 -204,238.9965 -6,6 -29,32.9995 -50,59.999 -70,87.999 -301,325.9955 -391,401.9945 -58,48.999 -276,185.997 -413,259.996 -37,20 -86,45.9995 -109,58.9995 -23,12.9995 -66,32.9995 -95,44.999 -29,13 -71,34.9995 -93,49.9995 -25,17 -69,33 -115,42 -249,50 -288,54 -530,50 z"
         inkscape:connector-curvature="0" />
      <path
         id="path1678"
         d="m 529,10057.12 c -23,-25 -24,-30 -22,-170.998 2,-177.9975 37,-374.9945 75,-416.994 4,-6 8,-16 8,-24 0,-22.9995 115,-251.996 153,-304.9955 51,-70.999 126,-146.998 146,-146.998 23,0 51,31 51,55.9995 0,19.9995 -68,162.9975 -92,192.997 -66,81.999 -118,352.995 -123,640.991 0,8 9,15.9995 19,17.9995 18,4 119,-23.9995 141,-38.9995 6,-3.9995 25,-9.9995 43,-13.9995 18,-4 45,-13 60,-21 15,-7.9995 33,-13.9995 40,-13.9995 19,0 102,-41.9995 157,-80.999 28,-18.9995 68,-42.9995 90,-53.999 22,-11 72,-43.9995 111,-71.999 39,-28.9995 78,-52.9995 87,-52.9995 18,0 47,36.9995 47,58.9995 0,29.9995 -280,296.9955 -340,323.995 -8,4 -31,17 -50,29 -121,73.999 -171,87.999 -390,107.999 -161,15 -183,13 -211,-16 z"
         inkscape:connector-curvature="0" />
      <path
         id="path1680"
         d="m 3705,9340.1295 c -16,-5.9995 -79,-33.9995 -140,-62.999 -60,-27.9995 -150,-70.999 -200,-93.9985 -176,-82.999 -433,-306.9955 -493,-430.9945 -39,-79 -42,-126 -9,-138 12,-5 36,-23 52,-41 98,-103 292,-158 500,-142 83,7 110,14 154,37 92,50 171,171 207,313 17,65.9995 16,74.999 -11,216.997 -28,143.998 -28,137.998 -1,166.998 14,13.9995 43,33.9995 66,43.999 22,10 40,21 40,25.9995 0,4 -13,17 -29,29 -20,13.9995 -27,26.9995 -24,39.9995 11,40.999 -48,58.999 -112,35.999 z m -75,-257.996 c 48,-30.9995 48,-30.9995 60,-109.9985 14,-86.9985 0,-197.9975 -26,-219.9975 -20,-16 -44,-3 -44,24 0,22 -127,227.997 -149,241.997 -28,15.9995 -9,42.9995 47,67.999 31,13.9995 59,25.9995 61,25.9995 2,1 25,-13 51,-29.9995 z m -206,-157.998 c 27,-29.9995 17,-62.999 -27,-85.9985 -33,-17 -39,-18 -47,-5 -16,24.9995 -11,54.999 13,82.999 27,30.9995 39,32.9995 61,7.9995 z m 66,-180.998 c 0,-11 -7,-20 -15,-20 -17,0 -18,2 -9,24 9,23 24,20 24,-4 z m -337,-52 c 14,-24 44,-61 67,-82 52,-50 41,-66 -31,-43 -68,22 -96,21 -109,-3 -8,-16 -17,-19 -33,-14 -26,7 -87,63 -87,78 0,14 130,104 152,105 9,1 27,-18 41,-41 z"
         inkscape:connector-curvature="0" />
      <path
         id="path1682"
         d="m 4790,8586.1375 c -14,-2 -43,-10 -65,-17 -22,-8 -74,-24 -115,-37 -41,-12 -82,-26 -90,-30 -8,-4 -40,-17 -70,-29 -30,-11 -64,-25 -75,-30 -11,-5 -41,-18 -67,-29 -133,-59 -470,-292 -560,-389 -52,-56 -53,-67 -8,-122 21,-26 31,-32 41,-24 34,26 119,48 190,50 42,1 83,5 90,9 11,7 49,15 237,45 29,5 74,13 100,19 55,12 186,27 362,42 170,14 228,26 241,51 37,69 -106,78 -431,27 -128,-20 -203,-23 -198,-8 3,8 21,17 41,22 49,12 87,48 80,77 -3,12 -12,24 -20,27 -17,7 -115,-21 -218,-62 -16,-6 -61,-22 -100,-34 -38,-12 -80,-28 -93,-34 -15,-7 -26,-7 -33,0 -7,7 8,22 48,49 32,21 89,62 128,90 38,28 93,61 120,73 28,12 63,29 78,36 16,8 33,15 39,15 5,0 24,6 41,14 39,17 290,101 332,111 59,13 86,63 46,85 -20,10 -26,10 -71,3 z"
         inkscape:connector-curvature="0" />
      <path
         id="path1684"
         d="m 2120,8216.1375 c -112,-42 -234,-96 -272,-120 -21,-13 -42,-23 -46,-23 -5,0 -27,-12 -48,-28 -21,-15 -61,-38 -89,-51 -56,-27 -212,-125 -292,-183 -56,-41 -68,-73 -38,-98 20,-16 19,-54 -1,-71 -25,-20 -35,-56 -24,-84 13,-34 36,-41 70,-21 37,21 37,21 32,-19 -4,-37 13,-66 50,-86 21,-11 34,10 54,83 24,91 100,206 213,319 58,58 132,123 163,142 79,51 217,123 252,131 37,9 83,41 97,68 9,16 6,24 -12,44 -27,29 -27,29 -109,-3 z"
         inkscape:connector-curvature="0" />
      <path
         id="path1686"
         d="m 2400,7291.1375 c -30,-17 -86,-46 -125,-65 -102,-52 -225,-132 -410,-268 -90,-66 -197,-143 -237,-172 -40,-28 -82,-60 -93,-70 -11,-10 -36,-31 -55,-47 -19,-15 -65,-57 -102,-92 -72,-69 -86,-105 -52,-139 23,-22 48,-12 129,56 98,82 122,101 185,144 65,46 65,45 115,87 22,19 58,47 80,63 21,16 46,35 55,43 20,17 290,214 315,229 11,7 52,32 90,55 39,23 77,47 85,54 34,27 110,64 134,64 14,0 28,5 31,11 11,17 -15,67 -38,73 -36,10 -50,6 -107,-26 z"
         inkscape:connector-curvature="0" />
      <path
         id="path1688"
         d="m 2440,7128.1375 c -41,-41 -138,-136 -215,-212 -129,-127 -147,-149 -222,-275 -45,-76 -84,-146 -87,-156 -4,-12 1,-29 13,-43 16,-21 22,-22 45,-11 14,6 26,16 26,22 0,10 70,115 118,176 12,16 46,61 75,100 96,130 329,365 345,349 4,-3 -1,-12 -11,-19 -9,-7 -17,-18 -17,-24 0,-6 -3,-12 -7,-14 -5,-1 -21,-23 -38,-47 -16,-25 -78,-93 -137,-153 -60,-59 -108,-112 -108,-117 0,-5 -6,-16 -13,-23 -6,-7 -30,-40 -52,-73 -22,-33 -42,-62 -45,-65 -15,-15 -128,-183 -155,-230 -47,-85 -88,-160 -122,-229 -41,-82 -38,-104 13,-109 28,-3 34,5 153,205 123,206 251,387 452,638 57,72 112,142 121,156 9,14 23,33 30,40 28,31 58,79 58,94 0,9 -13,22 -30,28 -16,6 -30,18 -30,27 0,25 -21,40 -54,40 -25,-1 -46,-16 -106,-75 z"
         inkscape:connector-curvature="0" />
      <path
         id="path1690"
         d="m 2538,5010.1375 c -40,-34 -42,-56 -7,-132 34,-76 78,-192 116,-305 13,-41 31,-88 38,-105 7,-16 21,-55 31,-85 9,-30 21,-59 25,-64 5,-6 9,-17 9,-25 0,-9 7,-29 15,-45 8,-15 15,-33 15,-40 0,-6 6,-22 13,-36 7,-14 21,-47 31,-75 10,-27 31,-78 47,-113 16,-35 29,-66 29,-70 0,-4 6,-18 13,-32 7,-14 24,-54 37,-90 13,-36 30,-76 37,-90 7,-14 13,-33 13,-42 0,-9 4,-19 9,-22 5,-3 12,-17 15,-31 15,-59 119,-276 298,-625 121,-234 158,-304 168,-310 4,-3 15,-20 25,-39 17,-34 238,-366 269,-406 9,-11 53,-69 98,-130 56,-76 167,-196 362,-392 154,-154 306,-302 337,-327 36,-29 58,-56 62,-73 4,-22 18,-34 56,-52 28,-13 62,-39 76,-57 30,-40 38,-41 66,-13 17,17 20,28 14,57 -4,21 -10,42 -15,47 -4,6 -10,23 -14,39 -4,16 -28,51 -54,76 -26,26 -85,94 -132,150 -47,57 -106,126 -131,154 -26,28 -66,80 -91,116 -104,153 -144,208 -183,251 -22,26 -76,100 -119,165 -43,66 -96,144 -117,174 -21,30 -71,107 -110,170 -40,63 -76,117 -79,120 -9,7 -100,160 -100,167 0,4 -20,36 -44,72 -24,37 -52,82 -63,101 -10,19 -30,53 -44,75 -38,58 -183,358 -228,470 -5,11 -24,54 -44,95 -19,41 -47,102 -62,135 -14,33 -47,101 -72,150 -95,190 -135,271 -150,305 -8,19 -21,49 -28,65 -7,17 -47,100 -89,186 -42,86 -76,158 -76,162 0,3 -42,68 -92,145 -51,77 -101,154 -110,171 -20,37 -34,39 -70,8 z"
         inkscape:connector-curvature="0" />
      <g
         id="g848"
         transform="matrix(1.9872319,0,0,1.9872319,-13921.159,-1101.2698)"
         style="stroke:#fefefe;stroke-width:24.48127365;stroke-miterlimit:4;stroke-dasharray:none;stroke-opacity:1">
        <path
           style="fill:#ff6f00;fill-opacity:1;stroke:#fefefe;stroke-width:24.48127365;stroke-miterlimit:4;stroke-dasharray:none;stroke-opacity:1"
           inkscape:connector-curvature="0"
           d="m 8866,3859 c -3,-13 -7,-96 -10,-184 -6,-170 -19,-325 -35,-440 -6,-38 -11,-106 -11,-150 0,-44 -5,-111 -10,-149 -6,-38 -11,-173 -12,-300 -2,-252 0,-260 60,-328 29,-33 156,-98 190,-98 11,0 33,-5 49,-11 46,-18 386,-14 485,6 45,9 87,21 93,26 5,5 16,9 25,9 30,0 137,58 178,97 61,58 85,119 86,223 1,77 -2,91 -31,150 -38,76 -117,161 -205,220 -62,41 -95,75 -81,83 5,2 20,7 35,11 50,12 145,76 175,119 58,82 73,123 73,195 0,81 -21,130 -78,190 -41,42 -154,103 -217,117 -17,3 -57,12 -90,20 -137,30 -163,36 -235,46 -41,5 -106,13 -145,16 -38,3 -73,11 -77,16 -4,6 -4,32 -1,59 5,43 4,48 -18,56 -13,5 -61,13 -106,17 -81,7 -82,7 -87,-16 z m 344,-320 c 58,-10 143,-24 190,-29 110,-12 273,-60 320,-93 22,-15 25,-24 25,-81 0,-56 -3,-66 -25,-84 -59,-49 -218,-111 -283,-112 -27,0 -45,-7 -62,-25 -22,-22 -25,-33 -25,-104 0,-93 6,-101 82,-127 181,-60 313,-161 356,-272 27,-73 27,-83 2,-105 -11,-9 -20,-24 -20,-32 0,-37 -49,-92 -107,-120 l -58,-28 -200,6 c -312,10 -446,38 -430,90 4,12 10,114 14,227 4,113 11,212 14,220 4,8 12,89 17,180 6,91 15,199 20,240 5,41 9,113 9,161 1,86 10,109 41,109 8,-1 62,-10 120,-21 z"
           id="path1692" />
        <path
           style="fill:#ff6f00;fill-opacity:1;stroke:#fefefe;stroke-width:24.48127365;stroke-miterlimit:4;stroke-dasharray:none;stroke-opacity:1"
           inkscape:connector-curvature="0"
           d="m 10978,3440 c -15,-4 -34,-14 -41,-22 -24,-25 -74,-103 -97,-153 -12,-27 -26,-57 -30,-66 -12,-24 -47,-159 -55,-209 -10,-74 -89,-298 -160,-455 -7,-16 -21,-57 -31,-90 -18,-64 -22,-75 -53,-147 -12,-26 -21,-54 -21,-62 0,-8 -4,-17 -9,-21 -5,-3 -17,-30 -26,-60 -16,-55 -9,-95 16,-95 5,0 14,-11 21,-25 17,-38 83,-44 161,-14 56,22 64,29 87,74 50,99 121,275 160,395 12,36 30,76 40,90 17,23 25,25 96,25 h 78 l 48,-94 c 26,-52 50,-107 53,-123 4,-15 11,-30 16,-33 5,-4 9,-14 9,-23 0,-9 7,-30 15,-46 8,-15 15,-32 15,-37 0,-4 13,-36 29,-71 16,-35 32,-75 35,-90 3,-15 22,-39 42,-55 30,-23 45,-27 88,-25 54,2 123,29 145,56 8,10 11,33 8,63 -7,73 -47,223 -65,246 -21,28 -88,232 -117,357 -20,86 -41,164 -61,232 -8,26 -14,55 -14,65 0,21 -43,151 -69,208 -25,56 -49,115 -57,145 -18,65 -28,70 -133,69 -53,0 -108,-4 -123,-9 z m 117,-432 c 7,-44 18,-85 40,-149 19,-55 9,-62 -70,-54 l -67,8 5,36 c 3,20 12,61 20,91 31,115 60,143 72,68 z"
           id="path1694" />
        <path
           style="fill:#ff6f00;fill-opacity:1;stroke:#fefefe;stroke-width:24.48127365;stroke-miterlimit:4;stroke-dasharray:none;stroke-opacity:1"
           inkscape:connector-curvature="0"
           d="m 10149,2478 c -9,-7 -22,-32 -29,-55 -19,-62 -1,-99 63,-128 54,-25 66,-24 115,12 28,21 32,29 32,71 -1,63 -24,89 -91,102 -66,13 -72,13 -90,-2 z"
           id="path1696" />
        <path
           style="fill:#ff6f00;fill-opacity:1;stroke:#fefefe;stroke-width:24.48127365;stroke-miterlimit:4;stroke-dasharray:none;stroke-opacity:1"
           inkscape:connector-curvature="0"
           d="m 11893,2362 c -28,-22 -37,-60 -29,-117 6,-35 14,-50 39,-67 88,-63 203,10 182,115 -13,63 -15,65 -66,76 -69,15 -100,13 -126,-7 z"
           id="path1698" />
      </g>
      <path
         id="path1700"
         d="m 10126.059,2599.3891 c -39.967,-39.9663 -49.958,-94.2061 -27.12,-159.8649 37.111,-112.7619 95.633,-151.3008 171.284,-111.3345 19.983,11.4189 27.119,29.9746 27.119,77.0777 0,111.3345 -14.273,149.8733 -69.94,188.4122 -61.377,41.3936 -65.659,41.3936 -101.343,5.7095 z"
         inkscape:connector-curvature="0"
         style="stroke-width:1.42736518" />
      <path
         id="path1702"
         d="m 12448.382,2585.1154 c -75.651,-89.924 -84.215,-208.3953 -18.556,-269.772 45.676,-42.821 102.77,-35.6842 134.172,15.701 19.984,34.2568 21.411,52.8125 7.137,149.8733 -11.419,75.6504 -24.265,115.6166 -41.393,128.4629 -35.684,25.6926 -41.394,24.2652 -81.36,-24.2652 z"
         inkscape:connector-curvature="0"
         style="stroke-width:1.42736518" />
      <path
         id="path1704"
         d="m 12057.284,2542.2944 c -79.933,-32.8294 -79.933,-149.8733 2.855,-251.2162 98.488,-118.4713 162.719,-132.745 192.694,-42.821 17.128,52.8125 14.273,64.2314 -45.676,191.267 -28.547,59.9493 -55.667,94.2061 -78.505,104.1976 -18.556,7.1368 -35.684,12.8463 -37.111,11.4189 -1.428,0 -17.129,-5.7094 -34.257,-12.8463 z"
         inkscape:connector-curvature="0"
         style="stroke-width:1.42736518" />
      <path
         id="path1706"
         d="m 11699.015,2413.8316 c -89.924,-37.1115 -58.522,-199.8312 59.949,-302.6015 54.24,-47.103 82.788,-48.5304 145.592,-9.9915 35.684,21.4105 48.53,39.9662 48.53,68.5135 0,58.522 -131.317,244.0795 -172.711,244.0795 -5.71,0 -18.556,2.8547 -29.975,5.7094 -9.991,4.2821 -32.829,1.4274 -51.385,-5.7094 z"
         inkscape:connector-curvature="0"
         style="stroke-width:1.42736518" />
      <path
         id="path1708"
         d="m 9697.8495,2385.2843 c -15.701,-15.701 -28.547,-35.6842 -28.547,-44.2484 0,-54.2398 42.821,-138.4544 105.625,-206.9679 61.376,-65.6588 82.787,-79.9325 132.745,-87.0693 55.667,-7.1368 59.949,-5.7094 69.941,29.9747 5.709,22.8378 0,62.8041 -14.274,98.4882 -12.846,34.2567 -22.838,69.9409 -22.838,81.3598 0,27.1199 -55.667,132.745 -77.078,145.5913 -34.256,22.8378 -137.027,11.4189 -165.574,-17.1284 z"
         inkscape:connector-curvature="0"
         style="stroke-width:1.42736518" />
      <path
         id="path1710"
         d="m 10217.41,2226.8467 c -98.488,-28.5473 -171.284,-161.2922 -198.404,-361.1234 -18.556,-151.3006 -35.6835,-179.8479 -104.1965,-179.8479 -75.651,0 -209.823,-109.9072 -265.49,-216.9595 -42.821,-82.7872 -54.24,-222.669 -21.411,-282.6184 89.924,-162.7196 256.926,-278.33629 456.7565,-314.02042 42.821,-8.5642 105.625,-19.98313 141.309,-28.54733 35.684,-7.1368 178.421,-12.8463 318.303,-14.2737 h 254.071 l 35.684,38.53893 c 28.547,31.40203 34.257,48.53043 28.547,82.78726 -5.709,22.83783 -15.701,107.05246 -22.838,185.55756 -7.137,78.505 -19.983,184.1301 -27.12,235.5152 -7.137,51.3852 -17.128,138.4544 -21.41,192.6943 -18.556,225.5237 -68.514,369.6876 -184.13,532.4072 -81.36,112.7618 -251.217,169.8565 -389.671,129.8902 z"
         inkscape:connector-curvature="0"
         style="stroke-width:1.42736518" />
      <path
         id="path1712"
         d="m 12424.117,2161.1879 c -27.12,-11.4189 -67.087,-34.2567 -88.497,-48.5304 -44.248,-32.8294 -104.198,-151.3007 -118.471,-236.9426 -11.419,-69.9409 -8.565,-68.5135 -85.642,-39.9662 -31.402,11.4189 -109.907,19.9831 -174.139,21.4104 -111.334,0 -118.471,-1.4273 -181.275,-49.9577 -157.01,-119.8987 -186.985,-185.5575 -176.993,-379.6791 8.564,-138.4545 29.974,-195.5491 119.898,-312.593 77.078,-102.7703 111.335,-131.31763 205.541,-181.27546 108.48,-58.52206 252.643,-88.49669 413.936,-88.49669 204.113,0 466.748,-15.7011 566.664,-32.82943 79.932,-14.2737 91.351,-14.2737 118.471,9.9915 34.257,29.97473 32.829,82.78729 -7.137,356.84148 -11.419,87.0693 -28.547,234.0879 -35.684,328.294 -7.137,95.6335 -19.983,189.8396 -27.12,212.6774 -8.564,21.4105 -15.701,54.2399 -15.701,71.3682 0,88.4967 -91.351,302.6015 -152.728,359.6961 -34.257,31.402 -48.53,34.2567 -174.139,32.8294 -88.496,0 -154.155,-8.5642 -186.984,-22.8379 z"
         inkscape:connector-curvature="0"
         style="stroke-width:1.42736518" />
      <path
         id="path1714"
         d="m 11359.302,2122.6491 c -55.667,-55.6673 -62.804,-108.4798 -21.41,-171.2839 34.256,-49.9577 137.027,-122.7534 176.993,-122.7534 34.257,0 124.181,65.6588 124.181,91.3514 0,37.1115 -85.642,191.2669 -122.754,221.2416 -54.24,42.821 -99.915,38.5389 -157.01,-18.5557 z"
         inkscape:connector-curvature="0"
         style="stroke-width:1.42736518" />
      <path
         id="path1716"
         d="m 9392.3934,2111.2301 c -59.9493,-85.6419 -7.1368,-181.2753 139.8821,-252.6436 107.052,-52.8125 138.454,-54.2399 185.557,-11.4189 l 35.684,31.402 -62.804,85.6419 c -91.351,121.3261 -118.471,149.8734 -149.873,149.8734 -14.274,0 -31.402,7.1368 -35.684,14.2736 -17.129,27.12 -89.924,15.701 -112.7621,-17.1284 z"
         inkscape:connector-curvature="0"
         style="stroke-width:1.42736518" />
      <path
         id="path1718"
         d="m 9145.4592,1653.046 c -58.5219,-21.4105 -88.4966,-61.3767 -89.924,-117.044 0,-39.9662 9.9916,-48.5304 88.4967,-91.3514 117.0439,-61.3767 201.2585,-71.3682 278.3366,-31.402 32.829,15.701 61.376,37.1115 65.658,47.1031 17.129,49.9577 -72.795,144.1639 -181.275,188.4122 -62.8041,25.6925 -97.0608,27.1199 -161.2923,4.2821 z"
         inkscape:connector-curvature="0"
         style="stroke-width:1.42736518" />
      <path
         id="path1720"
         d="m 11928.821,743.81406 c -35.684,-14.2736 -39.966,-38.53883 -17.128,-89.92406 24.265,-52.81256 59.949,-68.51356 97.06,-44.24836 38.539,27.11993 38.539,62.80416 0,111.33459 -31.402,39.96626 -34.256,41.39366 -79.932,22.83783 z"
         inkscape:connector-curvature="0"
         style="stroke-width:1.42736518" />
      <path
         id="path1722"
         d="m 11663.331,648.18057 c -5.709,-4.2821 -9.992,-37.11153 -9.992,-69.94096 0,-67.08626 35.685,-114.18939 95.634,-128.46299 45.676,-12.84633 61.377,4.2821 61.377,65.65886 0,84.21456 -102.771,176.99345 -147.019,132.74509 z"
         inkscape:connector-curvature="0"
         style="stroke-width:1.42736518" />
      <path
         id="path1724"
         d="m 12031.591,501.16175 c -72.795,-37.11153 -115.616,-101.34299 -128.463,-196.97658 -9.991,-78.50516 -31.402,-99.91556 -124.18,-122.75349 -97.061,-22.83783 -201.259,-184.1302495 -218.387,-339.7132 -9.992,-95.6335 11.419,-218.38691 47.103,-264.0626 l 24.265,-32.8294 513.851,2.85473 c 282.619,0 543.827,0 579.511,0 85.642,-2.85473 105.625,19.98311 92.778,99.91557 -5.709,31.40203 -18.555,75.65035 -28.547,95.63347 -11.419,19.98311 -34.257,72.7956 -51.385,115.61666 -89.924,222.66918 -164.147,352.5595 -286.9,499.57822 -112.762,135.59982 -169.857,171.28395 -275.482,171.28395 -58.522,0 -105.625,-9.9915 -144.164,-28.54733 z"
         inkscape:connector-curvature="0"
         style="stroke-width:1.42736518" />
      <path
         id="path1726"
         d="m 11370.721,355.57043 c -24.265,-29.97473 28.547,-137.02722 77.078,-154.15562 48.53,-18.55573 144.164,-18.55573 155.583,1.4274 47.103,75.65046 -175.566,221.24178 -232.661,152.72822 z"
         inkscape:connector-curvature="0"
         style="stroke-width:1.42736518" />
      <path
         id="path1728"
         d="m 11172.317,14.42983 c -49.957,-18.5557995 -38.539,-57.094629 32.83,-115.61669 78.505,-65.65886 141.309,-71.36836 201.258,-19.98313 34.257,29.97473 37.112,37.11153 18.556,58.522061 -47.103,57.0946595 -191.267,101.342989 -252.644,77.077759 z"
         inkscape:connector-curvature="0"
         style="stroke-width:1.42736518" />
    </g>
    <text
       xml:space="preserve"
       style="font-style:normal;font-variant:normal;font-weight:normal;font-stretch:normal;font-size:73.26447296px;line-height:1.25;font-family:GISELLE;-inkscape-font-specification:'GISELLE, Normal';font-variant-ligatures:normal;font-variant-caps:normal;font-variant-numeric:normal;font-feature-settings:normal;text-align:start;letter-spacing:0px;word-spacing:0px;writing-mode:lr-tb;text-anchor:start;fill:#000000;fill-opacity:1;stroke:none;stroke-width:3.66308951"
       x="114.23878"
       y="198.70222"
       id="text1770"><tspan
         sodipodi:role="line"
         id="tspan1768"
         x="114.23878"
         y="198.70222"
         style="font-style:normal;font-variant:normal;font-weight:normal;font-stretch:normal;font-size:73.26447296px;font-family:GISELLE;-inkscape-font-specification:'GISELLE, Normal';font-variant-ligatures:normal;font-variant-caps:normal;font-variant-numeric:normal;font-feature-settings:normal;text-align:start;writing-mode:lr-tb;text-anchor:start;stroke-width:3.66308951">79</tspan></text>
  </g>
</svg>
