<?xml version="1.0" encoding="UTF-8" standalone="no"?>
<!-- Created with Inkscape (http://www.inkscape.org/) -->

<svg
   xmlns:dc="http://purl.org/dc/elements/1.1/"
   xmlns:cc="http://creativecommons.org/ns#"
   xmlns:rdf="http://www.w3.org/1999/02/22-rdf-syntax-ns#"
   xmlns:svg="http://www.w3.org/2000/svg"
   xmlns="http://www.w3.org/2000/svg"
   xmlns:sodipodi="http://sodipodi.sourceforge.net/DTD/sodipodi-0.dtd"
   xmlns:inkscape="http://www.inkscape.org/namespaces/inkscape"
   width="210mm"
   height="80mm"
   viewBox="0 0 210 80"
   version="1.1"
   id="svg1057"
   inkscape:version="0.92.3 (2405546, 2018-03-11)"
   sodipodi:docname="logo-banner.svg"
   inkscape:export-filename="/home/florent/VisualStudioCode/association-ba/site/static/images/logo-banner.svg.png"
   inkscape:export-xdpi="61.93"
   inkscape:export-ydpi="61.93">
  <defs
     id="defs1051" />
  <sodipodi:namedview
     id="base"
     pagecolor="#ffffff"
     bordercolor="#666666"
     borderopacity="1.0"
     inkscape:pageopacity="0.0"
     inkscape:pageshadow="2"
     inkscape:zoom="1.3203968"
     inkscape:cx="396.85039"
     inkscape:cy="151.1811"
     inkscape:document-units="mm"
     inkscape:current-layer="layer1"
     showgrid="false"
     inkscape:window-width="1600"
     inkscape:window-height="851"
     inkscape:window-x="0"
     inkscape:window-y="25"
     inkscape:window-maximized="1" />
  <metadata
     id="metadata1054">
    <rdf:RDF>
      <cc:Work
         rdf:about="">
        <dc:format>image/svg+xml</dc:format>
        <dc:type
           rdf:resource="http://purl.org/dc/dcmitype/StillImage" />
        <dc:title />
      </cc:Work>
    </rdf:RDF>
  </metadata>
  <g
     inkscape:label="Calque 1"
     inkscape:groupmode="layer"
     id="layer1"
     transform="translate(0,-217)">
    <g
       id="g1730"
       transform="matrix(0.01522014,0,0,-0.01522014,2.3040535,289.28102)"
       style="fill:#000000;stroke:none">
      <path
         id="path1672"
         d="m 12206.426,4692.8514 c -6.165,-3.7936 -64.017,-30.3489 -92.47,-42.6782 -36.039,-15.6487 -56.904,-25.1328 -92.469,-41.7299 -22.287,-9.9582 -45.524,-20.3907 -52.162,-22.2875 -29.401,-9.0098 -241.369,-123.2925 -251.327,-135.1476 -1.423,-1.4227 -10.907,-8.0614 -21.339,-14.2261 -10.433,-6.1646 -55.008,-38.4103 -99.583,-71.1303 -44.101,-32.72 -106.695,-76.3466 -138.941,-97.2115 -75.398,-48.8428 -152.22,-106.2213 -188.258,-139.4155 -56.905,-53.1107 -179.723,-179.2485 -214.815,-220.9783 -19.916,-23.236 -38.409,-45.0492 -41.255,-47.8945 -2.371,-2.8451 -8.062,-10.4325 -11.855,-16.1229 -12.804,-18.968 -68.285,-92.4694 -74.924,-99.1082 -10.432,-10.9067 -55.482,-72.0788 -64.965,-89.1501 -10.433,-18.0196 -5.217,-27.5037 17.07,-32.2457 7.588,-1.8968 14.7,-5.2163 16.123,-7.5873 1.897,-2.3709 5.691,-4.2678 9.01,-4.2678 3.32,0 39.833,34.1426 81.563,76.3466 99.582,100.5309 215.763,197.7424 321.984,269.8211 17.545,11.855 44.1,30.3489 59.749,41.7299 15.175,10.9066 29.875,19.9164 31.771,19.9164 2.372,0 8.536,3.7936 14.226,8.5357 5.217,4.2678 14.227,11.3808 19.918,15.1744 5.689,3.7936 26.555,18.9682 46.945,33.1942 30.823,22.7618 163.126,105.7471 204.381,128.5089 7.587,4.2678 19.443,11.3808 27.03,16.5971 15.174,9.9582 21.814,13.7518 58.327,32.7199 22.287,11.8551 70.181,39.3588 94.84,54.5333 45.998,28.4521 186.836,100.5308 246.585,126.1378 24.659,10.9066 62.595,27.978 83.934,37.9362 l 39.359,18.4939 v 103.3761 102.9019 l -10.433,-0.4742 c -6.164,0 -14.226,-1.8968 -18.019,-4.2678 z"
         inkscape:connector-curvature="0"
         style="stroke-width:0.47420239" />
      <path
         id="path1674"
         d="m 7473.8865,4461.4407 c -6.6389,-4.2679 -21.8134,-18.4939 -33.1942,-31.7716 -11.8551,-12.8034 -22.2876,-24.6586 -23.7101,-26.0812 -1.4227,-1.4225 -9.4841,-12.3292 -18.0198,-24.6585 -12.8034,-18.968 -22.2875,-36.9878 -53.1106,-105.7471 -23.7102,-51.688 -38.8846,-147.0027 -36.9878,-225.2461 1.4226,-49.3171 1.4226,-49.7913 13.2776,-51.2139 6.6389,-0.4742 18.4939,2.8453 26.0811,7.5872 11.381,7.1131 15.6488,15.1745 22.7618,39.8331 4.2678,17.5454 8.0614,36.9878 8.0614,43.6265 0,6.1647 1.8968,12.8035 4.2678,14.2261 2.3711,1.4227 5.6905,10.4325 7.5873,19.9166 1.4226,9.484 4.742,20.8648 7.113,25.1326 2.3711,4.2679 15.1745,31.2974 28.9264,59.7496 22.7617,48.8428 53.1107,110.9633 63.5431,130.8798 11.3809,21.8134 22.7617,12.8035 104.7987,-82.037 58.3269,-67.3367 77.295,-92.9436 90.5726,-121.3958 20.3907,-43.6266 34.6168,-88.2016 34.6168,-107.644 0,-30.3489 26.5553,-46.4718 44.1009,-27.0294 12.8034,14.226 9.484,55.0074 -11.8551,152.6931 -9.9583,46.9461 -40.7814,118.0764 -66.8626,156.4868 -23.2358,33.6683 -78.2433,85.8306 -117.1279,110.9633 -19.4423,12.8035 -44.575,29.4006 -55.4817,36.5136 -22.2875,15.6487 -23.2359,15.6487 -39.3587,5.2163 z"
         inkscape:connector-curvature="0"
         style="stroke-width:0.47420239" />
      <path
         id="path1676"
         d="m 7431.2082,3935.5502 c -103.8503,-1.8968 -299.2217,-15.6487 -322.4576,-22.7617 -37.9362,-11.8551 -68.2851,-20.3907 -85.3564,-23.7101 -9.0098,-1.8968 -18.4939,-5.2162 -21.3391,-6.6389 -2.371,-1.8968 -15.1745,-7.5872 -28.4521,-12.3292 -20.865,-7.5873 -65.9142,-28.9263 -175.4549,-83.9338 -55.4817,-27.978 -119.499,-73.5014 -193.4746,-137.5187 -8.5357,-7.113 -16.5971,-13.2777 -18.4939,-13.2777 -1.8968,0 -6.1646,-2.8452 -9.484,-6.1646 -3.3195,-3.3194 -24.1844,-19.9165 -46.4719,-36.9878 -22.2875,-17.5454 -51.2138,-43.1524 -64.4916,-56.9043 -13.2776,-14.226 -36.9877,-37.462 -52.1622,-51.6881 -22.7617,-21.339 -71.6046,-75.8723 -129.4572,-144.6316 -13.2777,-15.6488 -91.5211,-120.4474 -114.757,-154.1159 -22.7617,-32.2457 -56.4301,-97.6856 -56.4301,-110.0149 0,-3.3194 -1.8968,-8.5356 -4.2678,-10.9066 -14.2261,-15.6486 -43.6267,-128.9831 -57.3785,-220.5041 -11.855,-77.295 7.5872,-318.664 35.091,-441.0082 13.2776,-58.3269 17.0713,-70.1819 36.5136,-109.5408 10.4324,-21.8132 28.9263,-60.2236 41.2556,-84.8821 18.4939,-37.4621 56.4301,-93.8921 104.7987,-156.4868 24.6585,-31.7716 108.5924,-111.4376 142.7349,-135.1477 14.2261,-9.9583 43.6266,-31.2973 64.4915,-46.9461 93.4179,-69.7077 177.826,-111.9117 223.3493,-111.9117 9.0099,0 19.9166,-1.8968 24.1844,-4.2679 10.4324,-5.6904 78.7176,-17.0712 145.5801,-25.1326 75.8724,-9.0099 187.7842,-7.5873 220.5041,2.8451 14.226,4.7421 36.0394,9.9583 48.3687,11.8551 11.855,1.8969 24.6585,5.6905 28.4521,8.0615 3.3194,2.8452 14.7002,7.5872 25.6069,10.4324 10.9067,3.3194 28.9264,12.8035 40.3072,21.3391 11.3809,9.0098 31.7716,20.8649 44.575,26.5554 14.7003,6.6388 28.9264,18.0196 37.9363,29.8747 8.0614,10.4324 20.8648,23.7101 29.4004,29.4006 13.7519,9.484 34.6168,35.5651 68.7594,85.8306 7.1131,10.4324 27.0295,31.7715 44.1009,46.946 25.1326,23.2359 31.7715,32.7199 37.9361,52.6365 4.7421,16.597 5.6904,28.9263 2.8453,38.8845 -2.8453,9.4841 -1.8968,22.7617 2.371,39.8331 3.7936,13.7518 6.6388,33.1941 6.6388,42.6782 0,9.484 3.3194,25.1327 7.113,34.1425 8.0615,19.4423 9.4841,135.6219 2.3711,174.0323 -10.4325,56.4301 -25.607,103.3762 -40.7814,126.1378 -9.0099,13.2777 -16.1229,27.5038 -16.1229,31.7716 0,4.2678 -1.8969,8.5357 -4.2678,9.9582 -12.3293,7.5873 -9.4842,95.7889 6.1646,192.5262 8.5355,51.2138 27.9779,114.757 41.7297,133.725 10.9067,15.6488 5.6905,29.4006 -12.3292,34.1427 -14.7003,3.7936 -15.6487,3.3193 -91.9953,-33.6685 -34.6168,-16.5971 -72.0787,-34.6167 -82.9854,-39.3587 -10.9066,-5.2163 -31.7715,-16.1229 -45.9976,-24.1844 -44.1008,-25.6069 -49.3171,-27.9779 -67.3367,-30.8231 -20.865,-3.7936 -64.9658,-38.8846 -84.8822,-67.8109 -15.6488,-23.7101 -16.1229,-25.6069 -7.5873,-33.1942 8.5356,-6.6388 51.6881,-30.8232 79.1918,-43.6266 97.6856,-46.4718 137.5187,-67.3368 151.2705,-78.7176 20.3907,-16.5971 38.4104,-45.0492 38.4104,-59.7495 0,-6.1646 6.6389,-24.1843 14.7003,-39.3588 11.8551,-23.2359 14.7003,-35.091 17.0713,-70.6562 1.8968,-41.7298 -2.8452,-107.6439 -12.8035,-158.8578 -16.5971,-90.5726 -28.9263,-143.6832 -37.9361,-163.5997 -2.371,-5.2163 -9.0099,-20.865 -14.2261,-34.6168 -22.7617,-59.2753 -43.1524,-81.5628 -98.1599,-105.273 -70.6561,-30.3489 -78.2434,-33.6683 -97.2115,-45.5234 -18.0197,-11.855 -41.2556,-18.9681 -82.037,-25.6069 -34.1425,-5.6905 -191.1035,-5.2162 -213.3911,0.4742 -10.4324,2.8452 -28.4521,7.1131 -40.3071,9.484 -55.0075,12.3293 -83.4597,19.9166 -87.7275,23.2359 -2.8452,2.3711 -16.5971,8.5357 -30.8232,14.2261 -35.091,13.7519 -165.9708,78.7176 -170.7128,84.8822 -1.4226,1.4227 -11.3808,9.0099 -22.2875,16.5971 -53.5849,36.0394 -105.2729,101.0051 -157.4353,197.2682 -6.6387,12.3293 -17.5454,31.7715 -23.71,43.1524 -6.1647,11.3808 -13.7519,24.1843 -16.5971,27.9779 -3.3194,3.7937 -10.9066,18.9682 -17.0713,33.1942 -6.1646,14.2261 -15.6487,32.72 -21.3391,40.3072 -5.6904,8.0615 -14.7003,26.0811 -20.865,40.3072 -5.6904,14.2261 -12.3292,30.349 -14.7001,35.5652 -5.2163,12.3293 -13.752,45.9976 -18.9682,74.924 -2.371,12.3293 -6.1646,29.4005 -9.0099,37.9361 -2.8451,8.0615 -8.5355,32.2458 -12.8034,53.1107 -3.7936,20.865 -10.4324,47.8944 -14.226,59.7496 -7.5873,25.1326 -17.5456,119.0247 -18.0198,170.2386 -0.9484,56.43 10.4325,131.8282 25.607,174.9807 14.2261,40.3071 19.9165,47.8943 97.2114,134.1992 15.6487,17.0713 30.8232,34.1426 33.1942,37.9362 2.8452,3.3195 16.5971,21.3391 30.8232,39.3588 14.2261,18.4939 35.5651,44.1008 47.8944,56.9043 11.8551,13.2776 44.1008,50.2654 71.1304,82.9854 27.0295,32.72 55.9559,65.9141 64.9657,73.5014 9.0099,8.0614 20.8649,18.4939 27.0296,23.71 5.6904,5.2163 15.1744,12.8035 21.339,16.5971 6.1647,3.7936 17.5456,12.3293 25.607,18.9682 8.0614,6.6388 26.5553,20.3907 40.7814,29.8747 14.7002,9.9582 36.0394,26.5553 47.8944,37.9361 58.3269,54.0592 82.0371,70.6563 152.6932,106.6956 30.3489,15.6487 73.0271,40.3072 94.8404,55.0075 63.0689,42.204 106.2214,59.2753 200.1135,79.1918 128.983,27.5037 145.58,29.8747 211.02,29.8747 72.0788,0 127.0863,-8.5356 180.1969,-27.5037 31.7716,-11.3809 44.1008,-16.1229 78.2434,-31.2974 5.2163,-2.371 28.9263,-12.3292 52.1622,-21.8133 23.7102,-9.9582 50.2655,-22.7617 59.7495,-28.4521 9.0099,-5.6904 37.9362,-21.3392 64.0174,-35.091 25.6069,-13.2776 55.0075,-30.8232 64.4915,-38.4104 9.484,-7.5872 19.4422,-13.7518 22.2875,-13.7518 2.371,0 5.2162,-1.8968 6.1646,-4.2679 1.4226,-4.2678 97.2115,-76.3466 154.1158,-115.2311 33.6684,-23.7102 82.037,-69.7078 202.9586,-193.9488 82.037,-83.9338 104.3245,-110.015 121.3958,-140.8381 6.6388,-12.3293 21.3391,-38.4104 32.72,-57.8527 11.3808,-19.4423 33.1941,-61.1721 48.8428,-92.4695 15.1745,-31.2973 29.8748,-60.6979 32.2458,-64.9657 2.371,-4.742 4.2678,-10.9067 4.2678,-13.2776 0,-5.6905 50.7397,-115.2312 64.9658,-139.8898 7.5872,-13.2776 82.9853,-161.2287 108.5922,-211.9684 6.1647,-12.8035 11.3809,-24.6585 11.3809,-27.0295 0,-9.0099 41.2556,-47.8945 51.2138,-47.8945 23.236,0 50.7397,52.1623 60.2238,113.8086 1.8968,11.8551 5.2162,23.7101 7.113,26.0812 1.8968,2.8451 4.742,11.3808 6.6388,18.968 1.8968,8.0614 6.1647,20.8649 9.9583,28.4521 3.7936,8.0615 9.484,21.8134 12.8035,30.8232 7.1129,19.4424 64.4915,132.7767 78.7175,156.4868 5.6904,9.0099 11.8551,19.9165 13.7519,23.7102 1.8968,3.7936 12.3292,22.2875 23.7102,40.7814 11.3808,18.4938 20.3907,36.5135 20.3907,39.3587 0,2.8452 1.8968,5.2163 3.7936,5.2163 1.8968,0 9.484,12.3292 17.0712,27.5037 17.0713,35.091 20.8649,41.7298 41.2556,69.7077 18.0197,25.1327 80.1403,127.5604 80.1403,132.3025 0,7.113 30.3489,44.1008 43.1524,51.688 7.5872,5.2163 13.7518,11.8551 13.7518,15.1745 0,22.7618 24.6586,55.4817 94.3663,127.0862 100.5309,103.3762 120.4474,121.3959 171.187,155.0642 31.7716,21.3392 73.5014,54.5333 96.2631,76.8208 15.1745,14.7003 35.5652,28.9263 48.8429,34.1426 36.5136,14.2261 64.9657,26.5553 77.7692,33.1941 57.8526,31.7716 92.944,45.9977 135.1473,54.5333 13.2781,2.8452 33.1944,7.5873 45.0498,10.4324 11.8544,2.8453 46.9461,7.1131 78.2431,9.4841 31.2971,2.371 65.4397,6.1647 75.8723,8.5356 32.7198,8.0615 121.3953,10.9067 154.1153,5.6905 88.202,-14.7003 143.209,-28.9264 193.001,-50.7396 8.062,-3.7937 16.597,-6.6389 18.968,-6.6389 11.381,0 181.145,-92.9436 191.103,-104.3245 1.423,-1.8968 12.329,-9.9583 24.659,-18.0197 25.133,-17.0713 89.624,-80.1403 101.953,-99.5825 4.743,-7.113 29.401,-41.7298 55.482,-76.8208 49.318,-66.8625 62.595,-90.5727 89.625,-156.4867 33.668,-83.4597 43.152,-152.6932 39.832,-296.3766 -3.319,-129.9314 -10.432,-182.0937 -25.607,-187.7841 -9.483,-3.3194 -9.958,-5.6904 -5.69,-18.0196 9.01,-25.607 -3.793,-172.6097 -19.916,-231.4108 -4.268,-16.5971 -7.587,-20.3907 -16.597,-20.3907 -11.381,0 -15.649,-10.9067 -6.639,-16.5971 5.691,-3.3195 6.164,-27.0295 0.948,-33.1942 -2.371,-2.8452 -11.855,-29.4006 -21.813,-59.2753 -15.649,-48.8428 -23.711,-71.6046 -36.514,-101.9535 -1.896,-5.2162 -11.381,-28.4521 -20.865,-52.1622 -9.958,-23.236 -19.442,-46.9461 -21.813,-52.1622 -1.896,-5.2163 -9.484,-23.236 -16.597,-40.3073 -17.071,-41.2556 -24.185,-56.4301 -34.617,-73.5013 -5.216,-7.5873 -16.597,-28.9264 -26.081,-46.9461 -9.484,-18.0197 -27.03,-46.946 -38.411,-64.4915 -11.854,-17.5455 -21.339,-34.6168 -21.339,-37.462 0,-2.8452 -1.896,-5.2163 -3.793,-5.2163 -2.371,0 -6.639,-5.6904 -9.958,-12.8034 -3.319,-7.5873 -19.917,-34.6167 -36.988,-60.6979 -17.546,-26.0811 -38.885,-59.2752 -48.369,-73.5013 -9.484,-14.2261 -28.926,-42.2041 -43.152,-62.1206 -14.226,-19.9165 -29.4,-40.7814 -33.194,-46.4718 -14.226,-21.3391 -26.555,-37.462 -48.369,-62.5947 -12.329,-14.2261 -31.297,-36.5136 -42.678,-50.2654 -70.182,-83.4596 -99.108,-117.1281 -131.354,-150.7964 -19.917,-20.8649 -44.576,-48.3687 -55.007,-61.6463 -40.782,-52.1622 -101.4798,-115.7054 -251.8026,-265.5533 -86.304,-85.8306 -168.3414,-169.29031 -182.5675,-184.93895 -69.7077,-77.29502 -125.1894,-143.20918 -165.0223,-196.79404 -25.607,-34.14253 -65.44,-82.03697 -95.3147,-113.80851 -3.7937,-4.26789 -12.3292,-14.2261 -18.4939,-21.81333 -66.3884,-79.66598 -204.8555,-218.60725 -299.2217,-300.64431 -70.182,-60.69792 -73.9756,-64.96571 -132.3024,-137.51864 -21.8134,-27.50375 -59.2754,-69.233595 -82.9854,-92.943723 -23.7102,-23.235862 -53.5849,-55.4816722 -65.9142,-71.1303062 -12.8035,-15.1744558 -33.1942,-38.4104098 -45.5235,-51.6880578 -42.204,-45.049283 -100.0566,-124.715273 -157.9093,-216.236273 -9.484,-14.70028 -27.9779,-35.56524 -41.2557,-46.94609 -27.0294,-22.76168 -29.4005,-31.29736 -12.8034,-46.94599 18.4939,-17.54553 40.7815,-18.01971 73.0272,-1.89681 31.2973,15.64864 72.0787,42.20403 92.9436,60.69792 7.5872,6.63877 15.1746,11.85502 17.0714,11.85502 1.8968,0 19.4422,14.22609 38.4103,31.29736 19.4423,17.54553 45.9976,39.83304 58.8011,49.31707 13.2776,9.95821 30.349,23.71013 37.9362,31.29736 8.0614,7.11305 34.6168,30.34891 59.2753,50.73961 24.6585,20.86497 58.3268,49.791255 73.9756,64.491531 45.0492,41.255574 109.0665,99.108324 156.4868,141.786522 62.1204,55.007497 216.2362,208.649037 263.1822,261.759727 39.3589,44.57501 63.5432,69.70768 113.8086,116.65376 14.2261,13.27765 55.4817,55.95585 91.9953,94.84044 36.5135,38.88459 76.8207,81.08861 89.6242,94.36626 12.8035,12.80347 34.1422,36.51361 47.4204,52.16233 13.2771,15.64864 30.3489,34.6167 37.4615,42.6782 7.1137,7.58723 35.5653,43.15238 62.5951,78.24336 27.0299,35.09097 54.0588,69.23359 60.2233,75.87237 6.1645,6.63887 22.7617,26.08114 36.988,42.67823 14.2263,17.07126 27.0298,31.77154 28.9262,33.19417 1.8972,1.42262 11.3808,14.22609 21.3389,28.92637 10.4327,14.70032 27.5044,38.41042 38.8854,52.16222 23.235,29.8747 20.864,26.5553 50.74,65.9142 12.803,17.0712 34.142,43.1524 47.894,57.8526 13.277,14.7003 31.297,38.4104 38.884,52.1623 18.02,31.2973 32.246,46.4719 42.679,46.4719 4.267,0 13.277,6.6388 19.916,15.1744 17.071,21.8134 40.782,50.2655 73.502,88.2017 15.648,18.0196 36.513,45.5234 45.997,60.6978 9.484,15.6487 34.142,45.9977 54.533,68.2852 20.865,22.2875 47.421,55.4816 59.75,73.9755 12.33,18.4939 25.607,36.5136 29.4,39.8331 12.329,10.4324 75.873,123.2926 84.408,149.8479 7.587,23.7101 27.03,64.4915 40.308,84.408 8.535,12.3293 15.174,23.2359 15.174,24.1843 0,0.9484 9.484,18.0198 21.339,36.9878 11.855,19.4423 21.339,36.5136 21.339,37.9362 0,1.4226 15.175,27.978 33.668,58.8011 29.401,47.8944 46.946,79.666 89.625,160.7546 4.267,7.5872 11.855,20.3907 17.071,28.4522 5.691,7.5872 21.339,35.0909 35.091,61.1721 14.226,26.0811 36.988,66.8625 51.214,90.0984 55.481,91.521 85.357,164.5482 107.169,263.1823 17.547,78.7176 21.34,101.0051 28.927,154.1158 4.268,31.2974 9.959,65.9141 12.329,76.8207 6.165,27.5038 5.217,124.7153 -0.948,151.7448 -2.845,12.8034 -8.536,29.4005 -12.33,37.462 -3.793,8.5356 -8.535,41.2556 -11.38,78.2434 -9.484,139.4155 -20.391,197.7424 -47.895,260.3371 -4.742,11.855 -11.381,26.5553 -14.226,33.1941 -14.225,34.6168 -63.543,126.1378 -84.882,156.4868 -28.926,42.2041 -91.995,100.0567 -139.416,128.0347 -23.235,13.7519 -45.997,27.9779 -49.79,31.2973 -17.546,14.7003 -104.8,58.8011 -168.342,84.8822 -10.433,4.2678 -23.236,9.4841 -28.453,11.8551 -5.216,2.371 -23.236,9.0098 -40.307,14.2261 -17.071,5.6904 -35.09,11.8551 -40.307,14.2261 -17.071,7.113 -56.43,18.0197 -75.872,21.339 -10.433,1.8968 -24.184,5.2163 -30.823,7.5873 -6.64,2.371 -22.762,6.6388 -35.566,9.0098 -13.278,2.3711 -38.41,7.5872 -56.904,11.8551 -63.543,13.7518 -81.089,16.1229 -147.003,19.9165 -105.7473,5.6904 -180.6705,4.2678 -229.9884,-4.2679 -54.0587,-9.484 -86.7785,-16.597 -106.2212,-22.7616 -8.0608,-2.371 -39.3584,-12.3293 -69.2332,-21.8134 -29.8747,-9.9582 -56.43,-19.4422 -59.2753,-21.8133 -2.3709,-1.8968 -7.113,-3.7936 -10.4324,-3.7936 -8.5356,0 -54.5333,-20.3907 -112.8602,-49.7913 -96.2631,-48.8428 -213.8653,-135.6218 -331.4674,-244.2142 -42.204,-38.8845 -54.059,-51.2138 -90.5726,-92.4694 -18.0198,-20.8649 -37.9363,-43.1524 -44.1009,-49.7913 -19.9165,-21.3391 -91.0468,-113.8086 -107.6439,-139.4154 -35.091,-55.0075 -106.6955,-194.8972 -106.6955,-208.649 0,-3.7937 -1.8968,-8.0615 -4.2678,-9.9583 -2.3711,-1.4227 -6.1647,-9.4841 -8.0615,-17.5455 -1.4227,-8.5357 -4.742,-18.4939 -7.1131,-22.7618 -4.2678,-7.5872 -16.1228,-40.3071 -23.2358,-64.0172 -2.3711,-7.5872 -8.0615,-26.0811 -12.3293,-40.3072 -4.2678,-14.2261 -9.9582,-36.5136 -12.3293,-49.7913 -6.1646,-29.8747 -22.2875,-66.8625 -27.0295,-61.1721 -1.8968,2.371 -8.5357,22.2875 -14.2261,44.575 -5.6904,22.2875 -12.3293,44.575 -14.7003,49.7913 -1.8968,5.2162 -7.5872,21.339 -11.855,35.5651 -15.6487,52.1623 -26.0811,74.924 -89.6243,196.794 -18.9681,36.0394 -35.091,63.5431 -40.7814,68.7594 -1.4226,1.4226 -6.1646,9.484 -11.3808,18.0197 -13.7519,25.1327 -53.5849,76.3465 -85.8307,110.4891 -16.1228,17.5455 -36.5135,42.204 -45.0492,54.5333 -13.2776,19.4423 -79.666,97.2115 -96.7372,113.3343 -2.8453,2.8453 -13.7519,15.6487 -23.7102,28.4522 -33.1941,41.7297 -142.7349,154.59 -185.4131,190.6293 -27.5038,23.236 -130.8799,88.2017 -195.8456,123.2927 -17.5454,9.484 -40.7814,21.8133 -51.6881,27.9779 -10.9066,6.1646 -31.2973,15.6486 -45.0492,21.3391 -13.7519,6.1646 -33.6683,16.597 -44.1008,23.7101 -11.855,8.0615 -32.72,15.6487 -54.5332,19.9165 -118.0764,23.7101 -136.5703,25.6069 -251.3273,23.7101 z"
         inkscape:connector-curvature="0"
         style="stroke-width:0.47420239" />
      <path
         id="path1678"
         d="m 6083.9993,3907.5723 c -10.9067,-11.8551 -11.3808,-14.2261 -10.4325,-81.0886 0.9485,-84.4081 17.5456,-177.8259 35.5652,-197.7424 1.8968,-2.8452 3.7936,-7.5872 3.7936,-11.3808 0,-10.9067 54.5333,-119.4991 72.553,-144.6318 24.1843,-33.6684 59.7495,-69.7077 69.2335,-69.7077 10.9067,0 24.1843,14.7003 24.1843,26.5553 0,9.484 -32.2457,77.295 -43.6265,91.5211 -31.2974,38.8846 -55.956,167.3934 -58.327,303.9637 0,3.7936 4.2678,7.5872 9.0099,8.5356 8.5356,1.8968 56.43,-11.3808 66.8625,-18.4939 2.8453,-1.8968 11.8551,-4.742 20.3907,-6.6388 8.5357,-1.8968 21.3392,-6.1646 28.4522,-9.9582 7.113,-3.7937 15.6486,-6.6389 18.9681,-6.6389 9.0098,0 48.3686,-19.9165 74.4497,-38.4104 13.2777,-9.0099 32.2458,-20.3907 42.6782,-25.607 10.4325,-5.2161 34.1426,-20.8648 52.6365,-34.1425 18.4939,-13.7518 36.9878,-25.1327 41.2556,-25.1327 8.5357,0 22.2875,17.5455 22.2875,27.978 0,14.226 -132.7767,140.838 -161.2288,153.6415 -3.7936,1.8968 -14.7003,8.0614 -23.7101,13.7518 -57.3785,35.091 -81.0886,41.7299 -184.9389,51.2139 -76.3466,7.1131 -86.779,6.1646 -100.0567,-7.5872 z"
         inkscape:connector-curvature="0"
         style="stroke-width:0.47420239" />
      <path
         id="path1680"
         d="m 7590.0659,3567.5692 c -7.5872,-2.8452 -37.4619,-16.1229 -66.3882,-29.8747 -28.4522,-13.2778 -71.1304,-33.6685 -94.8405,-44.5751 -83.4596,-39.3588 -205.3296,-145.5801 -233.7817,-204.3812 -18.4939,-37.462 -19.9166,-59.7495 -4.2679,-65.4399 5.6904,-2.371 17.0712,-10.9067 24.6586,-19.4423 46.4718,-48.8429 138.4671,-74.924 237.1011,-67.3368 39.3588,3.3195 52.1622,6.6389 73.0272,17.5456 43.6266,23.7101 81.0885,81.0886 98.1599,148.4253 8.0614,31.2973 7.5872,35.5651 -5.2163,102.9019 -13.2776,68.2851 -13.2776,65.4399 -0.4741,79.1918 6.6387,6.6388 20.3907,16.1229 31.2973,20.8649 10.4324,4.742 18.9681,9.9582 18.9681,12.3293 0,1.8968 -6.1647,8.0614 -13.7519,13.7518 -9.4841,6.6389 -12.8035,12.8035 -11.3809,18.9681 5.2163,19.4423 -22.7616,27.978 -53.1107,17.0713 z m -35.5651,-122.3443 c 22.7618,-14.7002 22.7618,-14.7002 28.4522,-52.1622 6.6388,-41.2556 0,-93.8921 -12.3293,-104.3245 -9.484,-7.5872 -20.8649,-1.4226 -20.8649,11.3809 0,10.4325 -60.2237,108.1181 -70.6562,114.7569 -13.2776,7.5873 -4.2678,20.3907 22.2875,32.2457 14.7003,6.6389 27.978,12.3293 28.9264,12.3293 0.9484,0.4742 11.8551,-6.1646 24.1843,-14.2261 z m -97.6857,-74.9239 c 12.8035,-14.2261 8.0615,-29.8747 -12.8035,-40.7814 -15.6486,-8.0615 -18.4939,-8.5357 -22.2875,-2.371 -7.5872,11.8551 -5.2162,26.0812 6.1647,39.3588 12.8035,14.7003 18.4939,15.6486 28.9263,3.7936 z m 31.2974,-85.8307 c 0,-5.2161 -3.3195,-9.484 -7.1131,-9.484 -8.0614,0 -8.5356,0.9485 -4.2678,11.3809 4.2678,10.9066 11.3809,9.4841 11.3809,-1.8969 z m -159.8062,-24.6584 c 6.6388,-11.3809 20.8649,-28.9264 31.7716,-38.8846 24.6584,-23.7102 19.4422,-31.2974 -14.7003,-20.3907 -32.2458,10.4325 -45.5235,9.9582 -51.6881,-1.4227 -3.7936,-7.5872 -8.0614,-9.0098 -15.6487,-6.6387 -12.3292,3.3193 -41.2556,29.8747 -41.2556,36.9877 0,6.6388 61.6464,49.317 72.0788,49.7913 4.2678,0.4742 12.8034,-8.5357 19.4423,-19.4423 z"
         inkscape:connector-curvature="0"
         style="stroke-width:0.47420239" />
      <path
         id="path1682"
         d="m 8104.5755,3210.0206 c -6.6388,-0.9484 -20.3907,-4.742 -30.8231,-8.0614 -10.4324,-3.7936 -35.091,-11.3808 -54.5333,-17.5455 -19.4423,-5.6905 -38.8845,-12.3292 -42.6782,-14.226 -3.7936,-1.8969 -18.9681,-8.0615 -33.1941,-13.752 -14.2261,-5.2162 -30.349,-11.855 -35.5653,-14.2261 -5.2161,-2.3709 -19.4422,-8.5355 -31.7715,-13.7518 -63.0689,-27.9779 -222.8751,-138.4671 -265.5534,-184.4647 -24.6584,-26.5553 -25.1326,-31.7716 -3.7936,-57.8527 9.9583,-12.3293 14.7003,-15.1745 19.4424,-11.3808 16.1229,12.3292 56.4301,22.7617 90.0984,23.71 19.9166,0.4743 39.3588,2.3711 42.6782,4.2679 5.2163,3.3194 23.2359,7.1131 112.386,21.3391 13.7518,2.371 35.091,6.1647 47.4202,9.0098 26.0812,5.6904 88.2016,12.8035 171.6612,19.9165 80.6145,6.6389 108.1182,12.3293 114.2828,24.1844 17.5456,32.7199 -50.2654,36.9877 -204.3811,12.8034 -60.6979,-9.484 -96.2632,-10.9066 -93.8921,-3.7936 1.4225,3.7936 9.9582,8.0614 19.4422,10.4325 23.236,5.6904 41.2557,22.7617 37.9363,36.5135 -1.4227,5.6904 -5.6905,11.3808 -9.4841,12.8035 -8.0615,3.3194 -54.5333,-9.9582 -103.3761,-29.4006 -7.5872,-2.8451 -28.9264,-10.4324 -47.4202,-16.1228 -18.0198,-5.6904 -37.9363,-13.2777 -44.1009,-16.1229 -7.113,-3.3194 -12.3293,-3.3194 -15.6486,0 -3.3194,3.3194 3.7936,10.4325 22.7617,23.2359 15.1744,9.9583 42.204,29.4005 60.6979,42.6783 18.0197,13.2776 44.1008,28.9262 56.9043,34.6167 13.2776,5.6904 29.8747,13.7519 36.9878,17.0713 7.5872,3.7936 15.6486,7.113 18.4939,7.113 2.3709,0 11.3808,2.8452 19.4422,6.6388 18.4939,8.0614 137.5187,47.8945 157.4352,52.6365 27.978,6.1646 40.7815,29.8748 21.8133,40.3072 -9.484,4.742 -12.3292,4.742 -33.6684,1.4226 z"
         inkscape:connector-curvature="0"
         style="stroke-width:0.47420239" />
      <path
         id="path1684"
         d="m 6838.4552,3034.5657 c -53.1106,-19.9165 -110.9633,-45.5234 -128.983,-56.9043 -9.9583,-6.1646 -19.9165,-10.9066 -21.8133,-10.9066 -2.371,0 -12.8034,-5.6905 -22.7618,-13.2777 -9.9582,-7.113 -28.9262,-18.0197 -42.2039,-24.1843 -26.5554,-12.8035 -100.5309,-59.2753 -138.4672,-86.779 -26.5553,-19.4423 -32.2457,-34.6168 -18.0196,-46.4718 9.484,-7.5873 9.0099,-25.607 -0.4743,-33.6684 -11.855,-9.484 -16.597,-26.5554 -11.3808,-39.833 6.1647,-16.1229 17.0713,-19.4423 33.1942,-9.9582 17.5455,9.9582 17.5455,9.9582 15.1744,-9.0099 -1.8968,-17.5455 6.1647,-31.2974 23.7102,-40.7814 9.9583,-5.2162 16.1229,4.742 25.6069,39.3588 11.3809,43.1524 47.4203,97.6857 101.0051,151.2705 27.5038,27.5038 62.5947,58.327 77.295,67.3367 37.462,24.1844 102.902,58.327 119.499,62.1206 17.5455,4.2678 39.3588,19.4423 45.9977,32.2458 4.2678,7.5872 2.8451,11.3808 -5.6905,20.8649 -12.8034,13.7518 -12.8034,13.7518 -51.6881,-1.4227 z"
         inkscape:connector-curvature="0"
         style="stroke-width:0.47420239" />
      <path
         id="path1686"
         d="m 6971.2319,2595.9286 c -14.226,-8.0615 -40.7814,-21.8133 -59.2753,-30.8232 -48.3686,-24.6585 -106.6956,-62.5947 -194.4229,-127.0862 -42.6782,-31.2974 -93.418,-67.811 -112.386,-81.5628 -18.9681,-13.2777 -38.8846,-28.4522 -44.1009,-33.1942 -5.2162,-4.7421 -17.0712,-14.7003 -26.0811,-22.2875 -9.0098,-7.113 -30.8232,-27.0296 -48.3686,-43.6266 -34.1426,-32.7199 -40.7814,-49.7913 -24.6586,-65.9141 10.9067,-10.4325 22.7618,-5.6905 61.1721,26.5553 46.4719,38.8846 57.8528,47.8944 87.7275,68.2851 30.8232,21.8134 30.8232,21.3391 54.5333,41.2556 10.4324,9.0099 27.5038,22.2875 37.9362,29.8747 9.9583,7.5874 21.8133,16.5971 26.0811,20.3907 9.4841,8.0615 137.5187,101.4793 149.3737,108.5924 5.2163,3.3194 24.6586,15.1744 42.6782,26.0811 18.4939,10.9067 36.5136,22.2875 40.3072,25.6069 16.1229,12.8035 52.1623,30.3491 63.5432,30.3491 6.6388,0 13.2777,2.3709 14.7003,5.2161 5.2161,8.0615 -7.1131,31.7716 -18.0197,34.6168 -17.0713,4.7421 -23.7102,2.8453 -50.7397,-12.3292 z"
         inkscape:connector-curvature="0"
         style="stroke-width:0.47420239" />
      <path
         id="path1688"
         d="m 6990.2,2518.6336 c -19.4423,-19.4423 -65.4399,-64.4915 -101.9535,-100.531 -61.1721,-60.2236 -69.7077,-70.6561 -105.273,-130.4055 -21.339,-36.0395 -39.8329,-69.2336 -41.2555,-73.9756 -1.8968,-5.6904 0.4741,-13.7519 6.1646,-20.3907 7.5873,-9.9583 10.4324,-10.4325 21.3391,-5.2162 6.6389,2.8451 12.3293,7.5872 12.3293,10.4323 0,4.7421 33.1942,54.5334 55.9559,83.4597 5.6904,7.5873 21.8133,28.9263 35.5651,47.4202 45.5235,61.6464 156.0126,173.0839 163.5999,165.4967 1.8968,-1.4227 -0.4742,-5.6905 -5.2163,-9.0099 -4.2678,-3.3194 -8.0614,-8.5357 -8.0614,-11.3808 0,-2.8453 -1.4226,-5.6905 -3.3194,-6.6389 -2.371,-0.4742 -9.9583,-10.9067 -18.0197,-22.2875 -7.5873,-11.855 -36.9878,-44.1008 -64.9657,-72.5529 -28.4522,-27.978 -51.2139,-53.1107 -51.2139,-55.4817 0,-2.371 -2.8452,-7.5872 -6.1646,-10.9067 -2.8453,-3.3194 -14.2261,-18.968 -24.6586,-34.6168 -10.4324,-15.6486 -19.9164,-29.4005 -21.3391,-30.8232 -7.113,-7.1129 -60.6979,-86.7789 -73.5013,-109.0665 -22.2876,-40.3071 -41.7299,-75.8724 -57.8527,-108.5923 -19.4423,-38.8845 -18.0197,-49.317 6.1646,-51.688 13.2776,-1.4226 16.1229,2.371 72.5529,97.2114 58.327,97.6857 119.0249,183.5164 214.3395,302.5411 27.0296,34.1426 53.1107,67.3368 57.3786,73.9756 4.2678,6.6389 10.9065,15.6487 14.226,18.9681 13.2776,14.7002 27.5037,37.462 27.5037,44.5751 0,4.2678 -6.1646,10.4324 -14.2261,13.2776 -7.5872,2.8452 -14.226,8.5356 -14.226,12.8035 0,11.855 -9.9583,18.9681 -25.6069,18.9681 -11.8551,-0.4742 -21.8134,-7.5873 -50.2655,-35.5652 z"
         inkscape:connector-curvature="0"
         style="stroke-width:0.47420239" />
      <path
         id="path1690"
         d="m 7036.6719,1514.273 c -18.9681,-16.1229 -19.9166,-26.5554 -3.3195,-62.5947 16.1229,-36.0395 36.9878,-91.0469 55.0075,-144.6317 6.1646,-19.4424 14.7003,-41.7299 18.0197,-49.7913 3.3194,-7.5872 9.9582,-26.0811 14.7002,-40.3072 4.2679,-14.2261 9.9583,-27.9779 11.8551,-30.349 2.371,-2.8452 4.2678,-8.0614 4.2678,-11.855 0,-4.2678 3.3195,-13.7518 7.1131,-21.3392 3.7936,-7.1129 7.113,-15.6486 7.113,-18.968 0,-2.8452 2.8452,-10.4324 6.1646,-17.0713 3.3194,-6.6389 9.9583,-22.2875 14.7003,-35.5651 4.7421,-12.8035 14.7003,-36.9878 22.2875,-53.5849 7.5872,-16.5971 13.7519,-31.29737 13.7519,-33.19418 0,-1.8968 2.8452,-8.53567 6.1646,-15.17454 3.3194,-6.63878 11.3809,-25.60685 17.5455,-42.67821 6.1646,-17.07126 14.2261,-36.03933 17.5455,-42.67823 3.3194,-6.63877 6.1646,-15.64863 6.1646,-19.91652 0,-4.26779 1.8968,-9.00976 4.2679,-10.43239 2.371,-1.42263 5.6904,-8.0615 7.113,-14.70027 7.113,-27.97793 56.4301,-130.87987 141.3123,-296.37653 57.3785,-110.96334 74.924,-144.15751 79.666,-147.00267 1.8968,-1.42263 7.113,-9.48404 11.8551,-18.49389 8.0614,-16.12291 112.8601,-173.55807 127.5604,-192.52623 4.2678,-5.21615 25.1327,-32.7199 46.4718,-61.64627 26.5553,-36.039332 79.1918,-92.943628 171.6613,-185.887352 73.0271,-73.027118 145.1058,-143.209068 159.8061,-155.064178 17.0714,-13.75183 27.5038,-26.5553 29.4006,-34.6167 1.8968,-10.43249 8.5357,-16.12291 26.5554,-24.65859 13.2776,-6.1646 29.4005,-18.49389 36.0393,-27.02947 14.2261,-18.96816 18.0197,-19.44234 31.2974,-6.16469 8.0615,8.06149 9.484,13.27774 6.6388,27.02956 -1.8968,9.95822 -4.742,19.91652 -7.113,22.28751 -1.8968,2.84525 -4.7421,10.90666 -6.6389,18.49389 -1.8968,7.58723 -13.2776,24.18431 -25.6069,36.03942 -12.3292,12.3292 -40.3072,44.57501 -62.5947,71.13031 -22.2876,27.029571 -50.2655,59.74956 -62.1205,73.027209 -12.3293,13.277648 -31.2974,37.936138 -43.1524,55.0074005 -49.3171,72.5530225 -68.2851,98.6341405 -86.779,119.0248405 -10.4325,12.32929 -36.0394,47.42026 -56.4301,78.24335 -20.3907,31.29736 -45.5235,68.28514 -55.4817,82.51124 -9.9582,14.2261 -33.6684,50.73961 -52.1622,80.61444 -18.9682,29.87473 -36.0395,55.48167 -37.4621,56.9042 -4.2678,3.31944 -47.4202,75.87247 -47.4202,79.19181 0,1.89681 -9.484,17.07135 -20.8649,34.14262 -11.3809,17.54544 -24.6585,38.88458 -29.8748,47.89444 -4.7419,9.00986 -14.226,25.13267 -20.8649,35.56515 -18.0197,27.50375 -86.779,169.76445 -108.1181,222.87514 -2.371,5.21624 -11.3809,25.60694 -20.8649,45.04919 -9.0099,19.44237 -22.2875,48.36865 -29.4006,64.01738 -6.6387,15.64863 -22.2875,47.89444 -34.1425,71.13031 -45.0493,90.0985 -64.0173,128.5089 -71.1304,144.6318 -3.7936,9.0097 -9.9582,23.2358 -13.2776,30.8231 -3.3195,8.0615 -22.2875,47.4202 -42.2041,88.2016 -19.9165,40.7814 -36.0393,74.924 -36.0393,76.8208 0,1.4226 -19.9165,32.2458 -43.6266,68.7594 -24.1844,36.5136 -47.8945,73.0271 -52.1623,81.0886 -9.484,17.5454 -16.1229,18.4939 -33.1941,3.7936 z"
         inkscape:connector-curvature="0"
         style="stroke-width:0.47420239" />
      <g
         id="g848"
         transform="matrix(1.5579646,0,0,1.5579646,-13024.584,-3210.5292)">
        <path
           style="fill:#ff6f00;fill-opacity:1"
           inkscape:connector-curvature="0"
           d="m 8866,3859 c -3,-13 -7,-96 -10,-184 -6,-170 -19,-325 -35,-440 -6,-38 -11,-106 -11,-150 0,-44 -5,-111 -10,-149 -6,-38 -11,-173 -12,-300 -2,-252 0,-260 60,-328 29,-33 156,-98 190,-98 11,0 33,-5 49,-11 46,-18 386,-14 485,6 45,9 87,21 93,26 5,5 16,9 25,9 30,0 137,58 178,97 61,58 85,119 86,223 1,77 -2,91 -31,150 -38,76 -117,161 -205,220 -62,41 -95,75 -81,83 5,2 20,7 35,11 50,12 145,76 175,119 58,82 73,123 73,195 0,81 -21,130 -78,190 -41,42 -154,103 -217,117 -17,3 -57,12 -90,20 -137,30 -163,36 -235,46 -41,5 -106,13 -145,16 -38,3 -73,11 -77,16 -4,6 -4,32 -1,59 5,43 4,48 -18,56 -13,5 -61,13 -106,17 -81,7 -82,7 -87,-16 z m 344,-320 c 58,-10 143,-24 190,-29 110,-12 273,-60 320,-93 22,-15 25,-24 25,-81 0,-56 -3,-66 -25,-84 -59,-49 -218,-111 -283,-112 -27,0 -45,-7 -62,-25 -22,-22 -25,-33 -25,-104 0,-93 6,-101 82,-127 181,-60 313,-161 356,-272 27,-73 27,-83 2,-105 -11,-9 -20,-24 -20,-32 0,-37 -49,-92 -107,-120 l -58,-28 -200,6 c -312,10 -446,38 -430,90 4,12 10,114 14,227 4,113 11,212 14,220 4,8 12,89 17,180 6,91 15,199 20,240 5,41 9,113 9,161 1,86 10,109 41,109 8,-1 62,-10 120,-21 z"
           id="path1692" />
        <path
           style="fill:#ff6f00;fill-opacity:1"
           inkscape:connector-curvature="0"
           d="m 10978,3440 c -15,-4 -34,-14 -41,-22 -24,-25 -74,-103 -97,-153 -12,-27 -26,-57 -30,-66 -12,-24 -47,-159 -55,-209 -10,-74 -89,-298 -160,-455 -7,-16 -21,-57 -31,-90 -18,-64 -22,-75 -53,-147 -12,-26 -21,-54 -21,-62 0,-8 -4,-17 -9,-21 -5,-3 -17,-30 -26,-60 -16,-55 -9,-95 16,-95 5,0 14,-11 21,-25 17,-38 83,-44 161,-14 56,22 64,29 87,74 50,99 121,275 160,395 12,36 30,76 40,90 17,23 25,25 96,25 h 78 l 48,-94 c 26,-52 50,-107 53,-123 4,-15 11,-30 16,-33 5,-4 9,-14 9,-23 0,-9 7,-30 15,-46 8,-15 15,-32 15,-37 0,-4 13,-36 29,-71 16,-35 32,-75 35,-90 3,-15 22,-39 42,-55 30,-23 45,-27 88,-25 54,2 123,29 145,56 8,10 11,33 8,63 -7,73 -47,223 -65,246 -21,28 -88,232 -117,357 -20,86 -41,164 -61,232 -8,26 -14,55 -14,65 0,21 -43,151 -69,208 -25,56 -49,115 -57,145 -18,65 -28,70 -133,69 -53,0 -108,-4 -123,-9 z m 117,-432 c 7,-44 18,-85 40,-149 19,-55 9,-62 -70,-54 l -67,8 5,36 c 3,20 12,61 20,91 31,115 60,143 72,68 z"
           id="path1694" />
        <path
           style="fill:#ff6f00;fill-opacity:1"
           inkscape:connector-curvature="0"
           d="m 10149,2478 c -9,-7 -22,-32 -29,-55 -19,-62 -1,-99 63,-128 54,-25 66,-24 115,12 28,21 32,29 32,71 -1,63 -24,89 -91,102 -66,13 -72,13 -90,-2 z"
           id="path1696" />
        <path
           style="fill:#ff6f00;fill-opacity:1"
           inkscape:connector-curvature="0"
           d="m 11893,2362 c -28,-22 -37,-60 -29,-117 6,-35 14,-50 39,-67 88,-63 203,10 182,115 -13,63 -15,65 -66,76 -69,15 -100,13 -126,-7 z"
           id="path1698" />
      </g>
      <path
         id="path1700"
         d="m 11582.484,1658.31 c -28,-28 -35,-66 -19,-112 26,-79 67,-106 120,-78 14,8 19,21 19,54 0,78 -10,105 -49,132 -43,29 -46,29 -71,4 z"
         inkscape:connector-curvature="0" />
      <path
         id="path1702"
         d="m 13209.484,1648.31 c -53,-63 -59,-146 -13,-189 32,-30 72,-25 94,11 14,24 15,37 5,105 -8,53 -17,81 -29,90 -25,18 -29,17 -57,-17 z"
         inkscape:connector-curvature="0" />
      <path
         id="path1704"
         d="m 12935.484,1618.31 c -56,-23 -56,-105 2,-176 69,-83 114,-93 135,-30 12,37 10,45 -32,134 -20,42 -39,66 -55,73 -13,5 -25,9 -26,8 -1,0 -12,-4 -24,-9 z"
         inkscape:connector-curvature="0" />
      <path
         id="path1706"
         d="m 12684.484,1528.31 c -63,-26 -41,-140 42,-212 38,-33 58,-34 102,-7 25,15 34,28 34,48 0,41 -92,171 -121,171 -4,0 -13,2 -21,4 -7,3 -23,1 -36,-4 z"
         inkscape:connector-curvature="0" />
      <path
         id="path1708"
         d="m 11282.484,1508.31 c -11,-11 -20,-25 -20,-31 0,-38 30,-97 74,-145 43,-46 58,-56 93,-61 39,-5 42,-4 49,21 4,16 0,44 -10,69 -9,24 -16,49 -16,57 0,19 -39,93 -54,102 -24,16 -96,8 -116,-12 z"
         inkscape:connector-curvature="0" />
      <path
         id="path1710"
         d="m 11646.484,1397.31 c -69,-20 -120,-113 -139,-253 -13,-106 -25,-126 -73,-126 -53,0 -147,-77.00003 -186,-152.00003 -30,-58 -38,-156 -15,-198 63,-114 180,-195 320,-220 30,-6 74,-14 99,-20 25,-5 125,-9 223,-10 h 178 l 25,27 c 20,22 24,34 20,58 -4,16 -11,75 -16,130 -5,55 -14,129 -19,165 -5,36 -12,97 -15,135 -13,158.00003 -48,259.00003 -129,373.00003 -57,79 -176,119 -273,91 z"
         inkscape:connector-curvature="0" />
      <path
         id="path1712"
         d="m 13192.484,1351.31 c -19,-8 -47,-24 -62,-34 -31,-23 -73,-106 -83,-166 -8,-49 -6,-48 -60,-28 -22,8 -77,14 -122,15 -78,0 -83,-1 -127,-35 -110,-84 -131,-130.00003 -124,-266.00003 6,-97 21,-137 84,-219 54,-72 78,-92 144,-127 76,-41 177,-62 290,-62 143,0 327,-11 397,-23 56,-10 64,-10 83,7 24,21 23,58 -5,250 -8,61 -20,164 -25,230 -5,67 -14,133.00003 -19,149.00003 -6,15 -11,38 -11,50 0,62 -64,212 -107,252 -24,22 -34,24 -122,23 -62,0 -108,-6 -131,-16 z"
         inkscape:connector-curvature="0" />
      <path
         id="path1714"
         d="m 12446.484,1324.31 c -39,-39 -44,-76 -15,-120 24,-35 96,-86 124,-86 24,0 87,46 87,64 0,26 -60,134 -86,155 -38,30 -70,27 -110,-13 z"
         inkscape:connector-curvature="0" />
      <path
         id="path1716"
         d="m 11068.484,1316.31 c -42,-60 -5,-127 98,-177 75,-37 97,-38 130,-8 l 25,22 -44,60 c -64,85 -83,105 -105,105 -10,0 -22,5 -25,10 -12,19 -63,11 -79,-12 z"
         inkscape:connector-curvature="0" />
      <path
         id="path1718"
         d="m 10895.484,995.30997 c -41,-15 -62,-43 -63,-82 0,-28 7,-34 62,-64 82,-43 141,-50 195,-22 23,11 43,26 46,33 12,35 -51,101 -127,132 -44,18.00003 -68,19.00003 -113,3 z"
         inkscape:connector-curvature="0" />
      <path
         id="path1720"
         d="m 12845.484,358.30997 c -25,-10 -28,-27 -12,-63 17,-37 42,-48 68,-31 27,19 27,44 0,78 -22,28 -24,29 -56,16 z"
         inkscape:connector-curvature="0" />
      <path
         id="path1722"
         d="m 12659.484,291.30997 c -4,-3 -7,-26 -7,-49 0,-47 25,-80 67,-90 32,-9 43,3 43,46 0,59 -72,124 -103,93 z"
         inkscape:connector-curvature="0" />
      <path
         id="path1724"
         d="m 12917.484,188.30997 c -51,-26 -81,-71 -90,-138.000001 -7,-54.9999996 -22,-70 -87,-86 -68,-16 -141,-128.999999 -153,-237.999999 -7,-67 8,-153 33,-185 l 17,-23 360,2 c 198,0 381,0 406,0 60,-2 74,14 65,70 -4,22 -13,53 -20,67 -8,14 -24,51 -36,81 -63,156 -115,246.999999 -201,349.999999 -79,95.000001 -119,120.000001 -193,120.000001 -41,0 -74,-7 -101,-20 z"
         inkscape:connector-curvature="0" />
      <path
         id="path1726"
         d="m 12454.484,86.309969 c -17,-21 20,-95.9999996 54,-108 34,-13 101,-13 109,1 33,53 -123,155.000001 -163,107 z"
         inkscape:connector-curvature="0" />
      <path
         id="path1728"
         d="m 12315.484,-152.69003 c -35,-13 -27,-40 23,-81 55,-46 99,-50 141,-14 24,21 26,26 13,41 -33,40 -134,71 -177,54 z"
         inkscape:connector-curvature="0" />
    </g>
    <text
       xml:space="preserve"
       style="font-style:normal;font-variant:normal;font-weight:normal;font-stretch:normal;font-size:50.02384567px;line-height:1.25;font-family:GISELLE;-inkscape-font-specification:'GISELLE, Normal';font-variant-ligatures:normal;font-variant-caps:normal;font-variant-numeric:normal;font-feature-settings:normal;text-align:start;letter-spacing:0px;word-spacing:0px;writing-mode:lr-tb;text-anchor:start;fill:#000000;fill-opacity:1;stroke:none;stroke-width:2.50110102"
       x="59.63538"
       y="256.06085"
       id="text1770"><tspan
         sodipodi:role="line"
         id="tspan1768"
         x="59.63538"
         y="256.06085"
         style="font-style:normal;font-variant:normal;font-weight:normal;font-stretch:normal;font-size:50.02384567px;font-family:GISELLE;-inkscape-font-specification:'GISELLE, Normal';font-variant-ligatures:normal;font-variant-caps:normal;font-variant-numeric:normal;font-feature-settings:normal;text-align:start;writing-mode:lr-tb;text-anchor:start;stroke-width:2.50110102">79</tspan></text>
  </g>
</svg>
